# Blender 3.6.4
# www.blender.org
mtllib eel6.mtl
o Icosphere
v -1.001868 0.232971 0.261638
v -0.638831 0.934345 -0.957895
v -0.430231 0.045564 -2.202300
v -0.449084 -0.661455 0.261638
v -0.746975 -0.043417 1.134988
v -0.579677 0.956579 0.810064
v 0.176252 0.420379 -2.202300
v 0.228125 -0.468402 -0.957895
v 0.314762 -0.490636 0.810064
v 0.147465 0.509360 1.134988
v 0.445347 1.127398 0.261638
v 0.998132 0.232972 0.261638
v -0.993113 0.072685 -0.856182
v -0.856885 0.658294 -0.313537
v -0.550665 0.411212 -2.063370
v -0.527604 1.083619 0.261638
v -0.905266 0.658294 0.593350
v -0.852520 -0.292758 0.261638
v -0.672536 -0.446030 -0.856183
v -0.971864 0.070516 0.784334
v -0.646947 -0.455218 0.784336
v -0.803788 0.495840 1.093351
v -0.006231 1.184029 -0.313540
v -0.054612 1.184029 0.593352
v 0.007936 0.232972 -3.042310
v -0.194175 0.631525 -2.063386
v -0.006230 -0.718086 -0.313540
v -0.194175 -0.165582 -2.063386
v -0.278053 -0.354814 1.093356
v -0.054612 -0.718086 0.593352
v -0.278053 0.820757 1.093356
v -0.366811 0.232972 1.284339
v 0.364898 0.911973 -0.856183
v 0.162298 0.054731 -2.063370
v 0.523868 -0.617676 0.261638
v 0.247687 -0.029897 1.093351
v 0.404525 0.921161 0.784336
v 0.685476 0.393258 -0.856182
v 0.848783 0.758702 0.261638
v 0.844424 -0.192351 -0.313537
v 0.796042 -0.192351 0.593350
v 0.729444 0.395427 0.784334
v -0.736196 0.347889 0.969450
v -0.762203 0.572607 0.957408
v -0.507370 0.235030 1.088890
v -0.502027 0.372872 1.079781
v -0.826843 0.340499 1.101291
v -0.852867 0.565217 1.089249
v -0.592516 0.227640 1.220731
v -0.587947 0.365483 1.211622
v 0.295626 0.347889 0.969450
v 0.334411 0.572607 0.957408
v -0.061598 0.235030 1.088890
v -0.057240 0.372872 1.079781
v 0.261901 0.338692 1.112208
v 0.300619 0.563410 1.100166
v -0.088865 0.225833 1.231648
v -0.085384 0.363676 1.222538
vn -1.0000 0.0089 0.0022
vn -0.8932 0.4444 -0.0682
vn -0.9757 -0.0968 -0.1964
vn -0.6156 0.7494 -0.2439
vn -0.5057 0.8624 0.0226
vn -0.8432 -0.5368 0.0304
vn -0.9500 -0.1785 0.2564
vn -0.8850 0.4468 0.1307
vn 0.0446 0.9868 -0.1554
vn -0.7479 -0.4896 -0.4483
vn -0.8208 0.3619 -0.4419
vn 0.1614 -0.0090 -0.9868
vn -0.4216 -0.9061 0.0356
vn -0.5726 -0.7884 -0.2246
vn 0.0559 -0.9853 -0.1612
vn -0.5781 -0.3247 0.7486
vn -0.5625 -0.7421 0.3646
vn -0.0403 -0.5987 0.8000
vn -0.4830 0.7771 0.4035
vn -0.6657 0.3068 0.6803
vn -0.0411 0.5917 0.8051
vn -0.0770 0.9134 -0.3996
vn -0.0227 -0.9182 -0.3955
vn 0.0114 -0.9509 0.3093
vn -0.0467 0.0059 0.9989
vn 0.0115 0.9490 0.3151
vn 0.8150 0.4687 -0.3408
vn 0.5572 0.7729 -0.3034
vn 0.9204 0.2131 -0.3277
vn 0.4293 -0.8431 -0.3238
vn 0.7864 -0.5201 -0.3333
vn 0.8763 -0.4264 -0.2241
vn 0.4110 -0.6718 0.6162
vn 0.5419 -0.8368 0.0780
vn 0.8042 -0.4028 0.4370
vn 0.3555 0.2405 0.9032
vn 0.4182 -0.2252 0.8800
vn 0.7433 0.1490 0.6521
vn 0.4654 0.8820 0.0736
vn 0.4841 0.6371 0.5997
vn 0.8534 0.5133 0.0911
vn 0.9952 0.0021 0.0976
vn -0.2400 -0.4623 -0.8536
vn 0.9111 0.3554 -0.2089
vn 0.6845 -0.6881 -0.2406
vn 0.3188 0.3717 0.8719
vn 0.1031 -0.7012 0.7055
vn -0.8464 -0.4891 0.2107
vn -0.6829 0.6820 0.2618
vn -0.0885 0.7471 -0.6588
vn 0.5618 -0.5192 -0.6441
vn -0.7163 0.4189 -0.5582
vn 0.5209 0.6365 -0.5689
vn -0.4895 -0.7008 -0.5190
vn -0.6253 0.4339 0.6486
vn 0.6378 -0.5384 0.5507
vn -0.4846 -0.6268 0.6101
vn 0.4458 0.7197 0.5323
vt 0.846045 0.086982
vt 0.920736 0.187087
vt 0.820691 0.280246
vt 0.975098 0.302966
vt 1.000000 0.093334
vt 0.759413 0.089456
vt 0.821803 -0.000000
vt 0.921676 0.032256
vt 0.182539 0.344484
vt 0.237816 0.548183
vt 0.135503 0.469237
vt 0.824999 0.517835
vt 0.886370 0.493128
vt 0.861873 0.665523
vt 0.397936 0.112460
vt 0.452752 0.300038
vt 0.340851 0.222651
vt 0.653168 0.759883
vt 0.716052 0.729485
vt 0.702669 0.831025
vt 0.476298 0.744713
vt 0.561096 0.745362
vt 0.502939 0.831922
vt 0.069873 0.168980
vt 0.476298 0.543358
vt 0.459315 0.698349
vt 0.414997 0.526176
vt 0.311509 0.072927
vt 0.606901 0.840838
vt 0.237816 0.641386
vt 0.168193 0.701564
vt 0.162397 0.621630
vt 0.561890 0.542848
vt 0.476298 0.329135
vt 0.560397 0.346857
vt 0.713109 0.348542
vt 0.623728 0.524285
vt 0.660792 0.260935
vt 0.718510 0.058336
vt 0.738550 0.152935
vt 0.661714 0.111682
vt 0.548074 0.000000
vt 0.639022 0.013197
vt 0.561535 0.077393
vt 0.076506 0.579354
vt 0.073773 0.667343
vt -0.000000 0.587927
vt 0.498969 0.161651
vt 0.586658 0.171288
vt 0.476298 0.059431
vt 0.026065 0.391348
vt 0.554227 0.907147
vt 0.476298 0.903158
vt 0.644512 0.917585
vt 0.717156 0.890453
vt 0.238555 0.150020
vt 0.237816 0.059904
vt 0.297993 0.351862
vt 0.363082 0.545346
vt 0.597278 0.667627
vt 0.009889 0.152824
vt 0.306858 -0.000000
vt 0.400543 0.028690
vt 0.030934 0.000000
vt 0.123898 0.155265
vt 0.524594 0.667627
vt 0.628555 0.676543
vt 0.738550 0.005012
vt 0.476298 0.107132
vt 0.738550 0.285192
vt 0.980451 0.000913
vt 0.717156 0.691914
vt 0.747600 0.736389
vt 0.727323 0.748564
vt 0.453438 0.700839
vt 0.430908 0.721919
vt 0.430908 0.698349
vt 0.747600 0.736395
vt 0.777721 0.691899
vt 0.767853 0.748547
vt 0.430909 0.736000
vt 0.408191 0.700732
vt 0.430909 0.698349
vt 0.314726 0.761295
vt 0.336697 0.698349
vt 0.336697 0.755435
vt 0.314726 0.764511
vt 0.292431 0.698349
vt 0.314726 0.701868
vt 0.264818 0.742075
vt 0.292431 0.712440
vt 0.292431 0.769391
vt 0.000000 0.725320
vt 0.023405 0.703616
vt 0.023405 0.727372
vt 0.264818 0.745987
vt 0.237816 0.712832
vt 0.256469 0.698349
vt 0.408191 0.700800
vt 0.386881 0.737264
vt 0.386881 0.698349
vt 0.361462 0.703198
vt 0.336697 0.751382
vt 0.336697 0.698349
vt 0.386881 0.752017
vt 0.361462 0.699031
vt 0.386881 0.698349
vt 0.747600 0.667627
vt 0.453438 0.724409
vt 0.747600 0.667627
vt 0.408191 0.738383
vt 0.314726 0.704209
vt 0.292431 0.760991
vt 0.273433 0.698349
vt 0.000000 0.701564
vt 0.237816 0.774030
vt 0.408191 0.739715
vt 0.361462 0.756231
vt 0.361462 0.752699
s 1
usemtl BodyMat
f 1/1/1 14/2/2 13/3/3
f 2/4/4 14/2/2 16/5/5
f 1/1/1 13/3/3 18/6/6
f 1/1/1 18/6/6 20/7/7
f 1/1/1 20/7/7 17/8/8
f 2/9/4 16/10/5 23/11/9
f 3/12/10 15/13/11 25/14/12
f 4/15/13 19/16/14 27/17/15
f 5/18/16 21/19/17 29/20/18
f 6/21/19 22/22/20 31/23/21
f 2/9/4 23/11/9 26/24/22
f 3/25/10 25/26/12 28/27/23
f 4/15/13 27/17/15 30/28/24
f 5/18/16 29/20/18 32/29/25
f 6/30/19 31/31/21 24/32/26
f 7/33/27 33/34/28 38/35/29
f 8/36/30 34/37/31 40/38/32
f 9/39/33 35/40/34 41/41/35
f 10/42/36 36/43/37 42/44/38
f 11/45/39 37/46/40 39/47/41
f 39/48/41 42/44/38 12/49/42
f 39/48/41 37/50/40 42/44/38
f 37/50/40 10/42/36 42/44/38
f 42/44/38 41/41/35 12/49/42
f 42/44/38 36/43/37 41/41/35
f 36/43/37 9/39/33 41/41/35
f 41/41/35 40/38/32 12/49/42
f 41/41/35 35/40/34 40/38/32
f 35/40/34 8/36/30 40/38/32
f 40/38/32 38/35/29 12/49/42
f 40/38/32 34/37/31 38/35/29
f 34/37/31 7/33/27 38/35/29
f 38/35/29 39/48/41 12/49/42
f 38/35/29 33/34/28 39/48/41
f 33/51/28 11/45/39 39/47/41
f 24/32/26 37/46/40 11/45/39
f 24/32/26 31/31/21 37/46/40
f 31/23/21 10/52/36 37/53/40
f 32/29/25 36/54/37 10/52/36
f 32/29/25 29/20/18 36/54/37
f 29/20/18 9/55/33 36/54/37
f 30/28/24 35/56/34 9/57/33
f 30/28/24 27/17/15 35/56/34
f 27/17/15 8/58/30 35/56/34
f 28/27/23 34/59/31 8/58/30
f 28/27/23 25/26/12 34/59/31
f 25/60/12 7/33/27 34/37/31
f 26/24/22 33/51/28 7/61/27
f 26/24/22 23/11/9 33/51/28
f 23/11/9 11/45/39 33/51/28
f 31/23/21 32/29/25 10/52/36
f 31/23/21 22/22/20 32/29/25
f 22/22/20 5/18/16 32/29/25
f 29/62/18 30/28/24 9/57/33
f 29/62/18 21/63/17 30/28/24
f 21/63/17 4/15/13 30/28/24
f 27/17/15 28/27/23 8/58/30
f 27/17/15 19/16/14 28/27/23
f 19/16/14 3/25/10 28/27/23
f 25/64/12 26/24/22 7/61/27
f 25/64/12 15/65/11 26/24/22
f 15/65/11 2/9/4 26/24/22
f 23/11/9 24/32/26 11/45/39
f 23/11/9 16/10/5 24/32/26
f 16/10/5 6/30/19 24/32/26
f 17/66/8 22/22/20 6/21/19
f 17/66/8 20/67/7 22/22/20
f 20/67/7 5/18/16 22/22/20
f 20/67/7 21/19/17 5/18/16
f 20/7/7 18/6/6 21/68/17
f 18/69/6 4/15/13 21/63/17
f 18/69/6 19/16/14 4/15/13
f 18/6/6 13/3/3 19/70/14
f 13/3/3 3/12/10 19/70/14
f 16/5/5 17/8/8 6/71/19
f 16/5/5 14/2/2 17/8/8
f 14/2/2 1/1/1 17/8/8
f 13/3/3 15/13/11 3/12/10
f 13/3/3 14/2/2 15/13/11
f 14/2/2 2/4/4 15/13/11
usemtl EyesMat
f 43/72/43 46/73/44 45/74/45
f 45/75/45 50/76/46 49/77/47
f 50/78/46 47/79/48 49/80/47
f 48/81/49 43/82/43 47/83/48
f 49/84/47 43/85/43 45/86/45
f 50/87/46 44/88/50 48/89/49
f 51/90/51 54/91/52 52/92/53
f 53/93/54 58/94/55 54/95/52
f 55/96/56 58/97/55 57/98/57
f 51/99/51 56/100/58 55/101/56
f 53/102/54 55/103/56 57/104/57
f 56/105/58 54/106/52 58/107/55
f 43/72/43 44/108/50 46/73/44
f 45/75/45 46/109/44 50/76/46
f 50/78/46 48/110/49 47/79/48
f 48/81/49 44/111/50 43/82/43
f 49/84/47 47/112/48 43/85/43
f 50/87/46 46/113/44 44/88/50
f 51/90/51 53/114/54 54/91/52
f 53/93/54 57/115/57 58/94/55
f 55/96/56 56/116/58 58/97/55
f 51/99/51 52/117/53 56/100/58
f 53/102/54 51/118/51 55/103/56
f 56/105/58 52/119/53 54/106/52
