# Blender 3.6.4
# www.blender.org
mtllib eel7.mtl
o Icosphere
v -0.991416 0.232971 0.261638
v -0.768655 0.934345 -0.957895
v -0.346369 0.045564 -2.202300
v -0.438632 -0.661455 0.261638
v -0.615089 -0.043417 1.134988
v -0.493298 0.956579 0.810064
v 0.260114 0.420379 -2.202300
v 0.098302 -0.468402 -0.957895
v 0.401142 -0.490636 0.810064
v 0.279351 0.509360 1.134988
v 0.455799 1.127398 0.261638
v 1.008584 0.232972 0.261638
v -1.124113 0.072685 -0.856182
v -0.897582 0.658294 -0.313537
v -0.439818 0.411212 -2.063370
v -0.517152 1.083619 0.261638
v -0.859895 0.658294 0.593350
v -0.842068 -0.292758 0.261638
v -0.803536 -0.446030 -0.856183
v -0.890723 0.070516 0.784334
v -0.565805 -0.455218 0.784336
v -0.673466 0.495840 1.093351
v -0.046929 1.184029 -0.313540
v -0.009241 1.184029 0.593352
v -0.004319 0.232972 -3.042310
v -0.083331 0.631525 -2.063386
v -0.046929 -0.718086 -0.313540
v -0.083331 -0.165582 -2.063386
v -0.147731 -0.354814 1.093356
v -0.009241 -0.718086 0.593352
v -0.147731 0.820757 1.093356
v -0.246388 0.232972 1.284339
v 0.233898 0.911973 -0.856183
v 0.273145 0.054731 -2.063370
v 0.534320 -0.617676 0.261638
v 0.378009 -0.029897 1.093351
v 0.485667 0.921161 0.784336
v 0.554476 0.393258 -0.856182
v 0.859235 0.758702 0.261638
v 0.803726 -0.192351 -0.313537
v 0.841413 -0.192351 0.593350
v 0.810586 0.395427 0.784334
v -0.619889 0.347889 0.969450
v -0.647835 0.572607 0.957408
v -0.377324 0.235030 1.088890
v -0.372602 0.372872 1.079781
v -0.696082 0.340499 1.101291
v -0.722798 0.565217 1.089249
v -0.463739 0.227640 1.220731
v -0.458406 0.365483 1.211622
v 0.411933 0.347889 0.969450
v 0.448778 0.572607 0.957408
v 0.068449 0.235030 1.088890
v 0.072185 0.372872 1.079781
v 0.393160 0.338692 1.112208
v 0.431322 0.563410 1.100166
v 0.038856 0.225833 1.231648
v 0.043229 0.363676 1.222538
vn -0.9926 0.0130 0.1208
vn -0.8961 0.4439 -0.0043
vn -0.9765 -0.0266 -0.2137
vn -0.7327 0.6202 -0.2804
vn -0.5044 0.8600 0.0772
vn -0.8349 -0.5330 0.1376
vn -0.9129 -0.1756 0.3684
vn -0.8676 0.4372 0.2370
vn 0.0538 0.9857 -0.1595
vn -0.7407 -0.4911 -0.4585
vn -0.7801 0.4048 -0.4771
vn 0.0575 -0.0064 -0.9983
vn -0.4183 -0.9044 0.0839
vn -0.5844 -0.7801 -0.2233
vn 0.0649 -0.9833 -0.1703
vn -0.5408 -0.3124 0.7810
vn -0.5446 -0.7226 0.4256
vn -0.0255 -0.5925 0.8051
vn -0.4625 0.7587 0.4587
vn -0.6180 0.2954 0.7286
vn -0.0260 0.5891 0.8077
vn -0.0200 0.9191 -0.3935
vn 0.0472 -0.9213 -0.3859
vn 0.0093 -0.9516 0.3071
vn -0.0532 0.0061 0.9986
vn 0.0100 0.9499 0.3125
vn 0.8214 0.4691 -0.3246
vn 0.5717 0.7668 -0.2920
vn 0.9059 0.3093 -0.2893
vn 0.4190 -0.8603 -0.2905
vn 0.8268 -0.4740 -0.3027
vn 0.8670 -0.4116 -0.2808
vn 0.4328 -0.6919 0.5779
vn 0.5425 -0.8398 0.0225
vn 0.8339 -0.4156 0.3633
vn 0.3749 0.2475 0.8934
vn 0.4484 -0.2337 0.8628
vn 0.7938 0.1534 0.5885
vn 0.4678 0.8836 0.0176
vn 0.5078 0.6582 0.5558
vn 0.8572 0.5149 -0.0035
vn 1.0000 0.0048 -0.0051
vn -0.2773 -0.4656 -0.8404
vn 0.9046 0.3653 -0.2198
vn 0.6902 -0.6811 -0.2444
vn 0.3179 0.3777 0.8696
vn 0.0993 -0.6986 0.7086
vn -0.8386 -0.4891 0.2398
vn -0.6631 0.6886 0.2936
vn -0.1380 0.7381 -0.6604
vn 0.5277 -0.5144 -0.6760
vn -0.7194 0.4177 -0.5549
vn 0.4734 0.6495 -0.5950
vn -0.4858 -0.7037 -0.5185
vn -0.6276 0.4346 0.6459
vn 0.6623 -0.5370 0.5225
vn -0.4935 -0.6242 0.6056
vn 0.4896 0.7060 0.5117
vt 0.846045 0.086982
vt 0.920736 0.187087
vt 0.820691 0.280246
vt 0.975098 0.302966
vt 1.000000 0.093334
vt 0.759413 0.089456
vt 0.821803 -0.000000
vt 0.921676 0.032256
vt 0.182539 0.344484
vt 0.237816 0.548183
vt 0.135503 0.469237
vt 0.824999 0.517835
vt 0.886370 0.493128
vt 0.861873 0.665523
vt 0.397936 0.112460
vt 0.452752 0.300038
vt 0.340851 0.222651
vt 0.653168 0.759883
vt 0.716052 0.729485
vt 0.702669 0.831025
vt 0.476298 0.744713
vt 0.561096 0.745362
vt 0.502939 0.831922
vt 0.069873 0.168980
vt 0.476298 0.543358
vt 0.459315 0.698349
vt 0.414997 0.526176
vt 0.311509 0.072927
vt 0.606901 0.840838
vt 0.237816 0.641386
vt 0.168193 0.701564
vt 0.162397 0.621630
vt 0.561890 0.542848
vt 0.476298 0.329135
vt 0.560397 0.346857
vt 0.713109 0.348542
vt 0.623728 0.524285
vt 0.660792 0.260935
vt 0.718510 0.058336
vt 0.738550 0.152935
vt 0.661714 0.111682
vt 0.548074 0.000000
vt 0.639022 0.013197
vt 0.561535 0.077393
vt 0.076506 0.579354
vt 0.073773 0.667343
vt -0.000000 0.587927
vt 0.498969 0.161651
vt 0.586658 0.171288
vt 0.476298 0.059431
vt 0.026065 0.391348
vt 0.554227 0.907147
vt 0.476298 0.903158
vt 0.644512 0.917585
vt 0.717156 0.890453
vt 0.238555 0.150020
vt 0.237816 0.059904
vt 0.297993 0.351862
vt 0.363082 0.545346
vt 0.597278 0.667627
vt 0.009889 0.152824
vt 0.306858 -0.000000
vt 0.400543 0.028690
vt 0.030934 0.000000
vt 0.123898 0.155265
vt 0.524594 0.667627
vt 0.628555 0.676543
vt 0.738550 0.005012
vt 0.476298 0.107132
vt 0.738550 0.285192
vt 0.980451 0.000913
vt 0.717156 0.691914
vt 0.747600 0.736389
vt 0.727323 0.748564
vt 0.453438 0.700839
vt 0.430908 0.721919
vt 0.430908 0.698349
vt 0.747600 0.736395
vt 0.777721 0.691899
vt 0.767853 0.748547
vt 0.430909 0.736000
vt 0.408191 0.700732
vt 0.430909 0.698349
vt 0.314726 0.761295
vt 0.336697 0.698349
vt 0.336697 0.755435
vt 0.314726 0.764511
vt 0.292431 0.698349
vt 0.314726 0.701868
vt 0.264818 0.742075
vt 0.292431 0.712440
vt 0.292431 0.769391
vt 0.000000 0.725320
vt 0.023405 0.703616
vt 0.023405 0.727372
vt 0.264818 0.745987
vt 0.237816 0.712832
vt 0.256469 0.698349
vt 0.408191 0.700800
vt 0.386881 0.737264
vt 0.386881 0.698349
vt 0.361462 0.703198
vt 0.336697 0.751382
vt 0.336697 0.698349
vt 0.386881 0.752017
vt 0.361462 0.699031
vt 0.386881 0.698349
vt 0.747600 0.667627
vt 0.453438 0.724409
vt 0.747600 0.667627
vt 0.408191 0.738383
vt 0.314726 0.704209
vt 0.292431 0.760991
vt 0.273433 0.698349
vt 0.000000 0.701564
vt 0.237816 0.774030
vt 0.408191 0.739715
vt 0.361462 0.756231
vt 0.361462 0.752699
s 1
usemtl BodyMat
f 1/1/1 14/2/2 13/3/3
f 2/4/4 14/2/2 16/5/5
f 1/1/1 13/3/3 18/6/6
f 1/1/1 18/6/6 20/7/7
f 1/1/1 20/7/7 17/8/8
f 2/9/4 16/10/5 23/11/9
f 3/12/10 15/13/11 25/14/12
f 4/15/13 19/16/14 27/17/15
f 5/18/16 21/19/17 29/20/18
f 6/21/19 22/22/20 31/23/21
f 2/9/4 23/11/9 26/24/22
f 3/25/10 25/26/12 28/27/23
f 4/15/13 27/17/15 30/28/24
f 5/18/16 29/20/18 32/29/25
f 6/30/19 31/31/21 24/32/26
f 7/33/27 33/34/28 38/35/29
f 8/36/30 34/37/31 40/38/32
f 9/39/33 35/40/34 41/41/35
f 10/42/36 36/43/37 42/44/38
f 11/45/39 37/46/40 39/47/41
f 39/48/41 42/44/38 12/49/42
f 39/48/41 37/50/40 42/44/38
f 37/50/40 10/42/36 42/44/38
f 42/44/38 41/41/35 12/49/42
f 42/44/38 36/43/37 41/41/35
f 36/43/37 9/39/33 41/41/35
f 41/41/35 40/38/32 12/49/42
f 41/41/35 35/40/34 40/38/32
f 35/40/34 8/36/30 40/38/32
f 40/38/32 38/35/29 12/49/42
f 40/38/32 34/37/31 38/35/29
f 34/37/31 7/33/27 38/35/29
f 38/35/29 39/48/41 12/49/42
f 38/35/29 33/34/28 39/48/41
f 33/51/28 11/45/39 39/47/41
f 24/32/26 37/46/40 11/45/39
f 24/32/26 31/31/21 37/46/40
f 31/23/21 10/52/36 37/53/40
f 32/29/25 36/54/37 10/52/36
f 32/29/25 29/20/18 36/54/37
f 29/20/18 9/55/33 36/54/37
f 30/28/24 35/56/34 9/57/33
f 30/28/24 27/17/15 35/56/34
f 27/17/15 8/58/30 35/56/34
f 28/27/23 34/59/31 8/58/30
f 28/27/23 25/26/12 34/59/31
f 25/60/12 7/33/27 34/37/31
f 26/24/22 33/51/28 7/61/27
f 26/24/22 23/11/9 33/51/28
f 23/11/9 11/45/39 33/51/28
f 31/23/21 32/29/25 10/52/36
f 31/23/21 22/22/20 32/29/25
f 22/22/20 5/18/16 32/29/25
f 29/62/18 30/28/24 9/57/33
f 29/62/18 21/63/17 30/28/24
f 21/63/17 4/15/13 30/28/24
f 27/17/15 28/27/23 8/58/30
f 27/17/15 19/16/14 28/27/23
f 19/16/14 3/25/10 28/27/23
f 25/64/12 26/24/22 7/61/27
f 25/64/12 15/65/11 26/24/22
f 15/65/11 2/9/4 26/24/22
f 23/11/9 24/32/26 11/45/39
f 23/11/9 16/10/5 24/32/26
f 16/10/5 6/30/19 24/32/26
f 17/66/8 22/22/20 6/21/19
f 17/66/8 20/67/7 22/22/20
f 20/67/7 5/18/16 22/22/20
f 20/67/7 21/19/17 5/18/16
f 20/7/7 18/6/6 21/68/17
f 18/69/6 4/15/13 21/63/17
f 18/69/6 19/16/14 4/15/13
f 18/6/6 13/3/3 19/70/14
f 13/3/3 3/12/10 19/70/14
f 16/5/5 17/8/8 6/71/19
f 16/5/5 14/2/2 17/8/8
f 14/2/2 1/1/1 17/8/8
f 13/3/3 15/13/11 3/12/10
f 13/3/3 14/2/2 15/13/11
f 14/2/2 2/4/4 15/13/11
usemtl EyesMat
f 43/72/43 46/73/44 45/74/45
f 45/75/45 50/76/46 49/77/47
f 50/78/46 47/79/48 49/80/47
f 48/81/49 43/82/43 47/83/48
f 49/84/47 43/85/43 45/86/45
f 50/87/46 44/88/50 48/89/49
f 51/90/51 54/91/52 52/92/53
f 53/93/54 58/94/55 54/95/52
f 55/96/56 58/97/55 57/98/57
f 51/99/51 56/100/58 55/101/56
f 53/102/54 55/103/56 57/104/57
f 56/105/58 54/106/52 58/107/55
f 43/72/43 44/108/50 46/73/44
f 45/75/45 46/109/44 50/76/46
f 50/78/46 48/110/49 47/79/48
f 48/81/49 44/111/50 43/82/43
f 49/84/47 47/112/48 43/85/43
f 50/87/46 46/113/44 44/88/50
f 51/90/51 53/114/54 54/91/52
f 53/93/54 57/115/57 58/94/55
f 55/96/56 56/116/58 58/97/55
f 51/99/51 52/117/53 56/100/58
f 53/102/54 51/118/51 55/103/56
f 56/105/58 52/119/53 54/106/52
