# Blender 3.6.4
# www.blender.org
mtllib eel8.mtl
o Icosphere
v -1.000233 0.232971 0.261638
v -0.840347 0.934345 -0.957895
v -0.308028 0.045564 -2.202300
v -0.447448 -0.661455 0.261638
v -0.513761 -0.043417 1.134988
v -0.453124 0.956579 0.810064
v 0.298455 0.420379 -2.202300
v 0.026609 -0.468402 -0.957895
v 0.441315 -0.490636 0.810064
v 0.380679 0.509360 1.134988
v 0.446983 1.127398 0.261638
v 0.999767 0.232972 0.261638
v -1.228738 0.072685 -0.856182
v -0.984668 0.658294 -0.313537
v -0.378008 0.411212 -2.063370
v -0.525969 1.083619 0.261638
v -0.844091 0.658294 0.593350
v -0.850884 -0.292758 0.261638
v -0.908160 -0.446030 -0.856183
v -0.854302 0.070516 0.784334
v -0.529384 -0.455218 0.784336
v -0.580350 0.495840 1.093351
v -0.134015 1.184029 -0.313540
v 0.006563 1.184029 0.593352
v -0.041878 0.232972 -3.042310
v -0.021524 0.631525 -2.063386
v -0.134015 -0.718086 -0.313540
v -0.021524 -0.165582 -2.063386
v -0.054613 -0.354814 1.093356
v 0.006564 -0.718086 0.593352
v -0.054613 0.820757 1.093356
v -0.121212 0.232972 1.284339
v 0.129273 0.911973 -0.856183
v 0.334955 0.054731 -2.063370
v 0.525503 -0.617676 0.261638
v 0.471126 -0.029897 1.093351
v 0.522088 0.921161 0.784336
v 0.449851 0.393258 -0.856182
v 0.850419 0.758702 0.261638
v 0.716641 -0.192351 -0.313537
v 0.857218 -0.192351 0.593350
v 0.847007 0.395427 0.784334
v -0.551754 0.347889 0.969450
v -0.582046 0.572607 0.957408
v -0.285104 0.235030 1.088890
v -0.282222 0.372872 1.079781
v -0.601375 0.340499 1.101291
v -0.630506 0.565217 1.089249
v -0.347230 0.227640 1.220731
v -0.343351 0.365483 1.211622
v 0.480069 0.347889 0.969450
v 0.514567 0.572607 0.957408
v 0.160668 0.235030 1.088890
v 0.162566 0.372872 1.079781
v 0.490037 0.338692 1.112208
v 0.525804 0.563410 1.100166
v 0.157043 0.225833 1.231648
v 0.160020 0.363676 1.222538
vn -0.9777 -0.0023 0.2098
vn -0.8901 0.4545 0.0321
vn -0.9750 -0.0073 -0.2222
vn -0.7493 0.5810 -0.3178
vn -0.4962 0.8599 0.1199
vn -0.8241 -0.5277 0.2056
vn -0.8745 -0.1680 0.4550
vn -0.8448 0.4258 0.3240
vn 0.0292 0.9873 -0.1564
vn -0.7394 -0.4935 -0.4580
vn -0.7539 0.4401 -0.4878
vn -0.0269 -0.0039 -0.9996
vn -0.4176 -0.9008 0.1194
vn -0.5950 -0.7730 -0.2204
vn 0.0354 -0.9858 -0.1643
vn -0.4925 -0.2947 0.8189
vn -0.5308 -0.7032 0.4730
vn -0.0111 -0.5889 0.8082
vn -0.4509 0.7393 0.5002
vn -0.5684 0.2797 0.7738
vn -0.0112 0.5878 0.8089
vn 0.0253 0.9243 -0.3807
vn 0.0901 -0.9222 -0.3760
vn 0.0092 -0.9522 0.3054
vn -0.0359 0.0039 0.9993
vn 0.0102 0.9504 0.3109
vn 0.8225 0.4727 -0.3163
vn 0.5883 0.7612 -0.2730
vn 0.9005 0.3506 -0.2574
vn 0.4420 -0.8584 -0.2604
vn 0.8571 -0.4316 -0.2813
vn 0.8537 -0.4098 -0.3214
vn 0.4457 -0.7118 0.5429
vn 0.5499 -0.8349 -0.0241
vn 0.8569 -0.4259 0.2903
vn 0.4075 0.2602 0.8754
vn 0.4866 -0.2472 0.8379
vn 0.8333 0.1603 0.5290
vn 0.4657 0.8847 -0.0219
vn 0.5248 0.6768 0.5162
vn 0.8552 0.5141 -0.0660
vn 0.9963 -0.0098 -0.0859
vn -0.3463 -0.4819 -0.8049
vn 0.8793 0.3757 -0.2928
vn 0.6640 -0.6820 -0.3066
vn 0.3855 0.3880 0.8372
vn 0.1755 -0.6858 0.7063
vn -0.8034 -0.5043 0.3166
vn -0.6318 0.6879 0.3573
vn 0.4578 -0.5043 -0.7322
vn -0.7721 0.4128 -0.4832
vn 0.3831 0.6730 -0.6326
vn -0.5489 -0.6907 -0.4708
vn -0.5671 0.4254 0.7053
vn 0.7155 -0.5314 0.4534
vn -0.4190 -0.6389 0.6452
vn 0.5626 0.6876 0.4590
vn -0.2336 0.7108 -0.6635
vt 0.846045 0.086982
vt 0.920736 0.187087
vt 0.820691 0.280246
vt 0.975098 0.302966
vt 1.000000 0.093334
vt 0.759413 0.089456
vt 0.821803 -0.000000
vt 0.921676 0.032256
vt 0.182539 0.344484
vt 0.237816 0.548183
vt 0.135503 0.469237
vt 0.824999 0.517835
vt 0.886370 0.493128
vt 0.861873 0.665523
vt 0.397936 0.112460
vt 0.452752 0.300038
vt 0.340851 0.222651
vt 0.653168 0.759883
vt 0.716052 0.729485
vt 0.702669 0.831025
vt 0.476298 0.744713
vt 0.561096 0.745362
vt 0.502939 0.831922
vt 0.069873 0.168980
vt 0.476298 0.543358
vt 0.459315 0.698349
vt 0.414997 0.526176
vt 0.311509 0.072927
vt 0.606901 0.840838
vt 0.237816 0.641386
vt 0.168193 0.701564
vt 0.162397 0.621630
vt 0.561890 0.542848
vt 0.476298 0.329135
vt 0.560397 0.346857
vt 0.713109 0.348542
vt 0.623728 0.524285
vt 0.660792 0.260935
vt 0.718510 0.058336
vt 0.738550 0.152935
vt 0.661714 0.111682
vt 0.548074 0.000000
vt 0.639022 0.013197
vt 0.561535 0.077393
vt 0.076506 0.579354
vt 0.073773 0.667343
vt -0.000000 0.587927
vt 0.498969 0.161651
vt 0.586658 0.171288
vt 0.476298 0.059431
vt 0.026065 0.391348
vt 0.554227 0.907147
vt 0.476298 0.903158
vt 0.644512 0.917585
vt 0.717156 0.890453
vt 0.238555 0.150020
vt 0.237816 0.059904
vt 0.297993 0.351862
vt 0.363082 0.545346
vt 0.597278 0.667627
vt 0.009889 0.152824
vt 0.306858 -0.000000
vt 0.400543 0.028690
vt 0.030934 0.000000
vt 0.123898 0.155265
vt 0.524594 0.667627
vt 0.628555 0.676543
vt 0.738550 0.005012
vt 0.476298 0.107132
vt 0.738550 0.285192
vt 0.980451 0.000913
vt 0.717156 0.691914
vt 0.747600 0.736389
vt 0.727323 0.748564
vt 0.453438 0.700839
vt 0.430908 0.721919
vt 0.430908 0.698349
vt 0.747600 0.736395
vt 0.777721 0.691899
vt 0.767853 0.748547
vt 0.430909 0.736000
vt 0.408191 0.700732
vt 0.430909 0.698349
vt 0.336697 0.755435
vt 0.314726 0.704209
vt 0.336697 0.698349
vt 0.292431 0.760991
vt 0.314726 0.701868
vt 0.314726 0.764511
vt 0.264818 0.742075
vt 0.292431 0.712440
vt 0.292431 0.769391
vt 0.000000 0.725320
vt 0.023405 0.703616
vt 0.023405 0.727372
vt 0.264818 0.745987
vt 0.237816 0.712832
vt 0.256469 0.698349
vt 0.408191 0.700800
vt 0.386881 0.737264
vt 0.386881 0.698349
vt 0.361462 0.703198
vt 0.336697 0.751382
vt 0.336697 0.698349
vt 0.386881 0.752017
vt 0.361462 0.699031
vt 0.386881 0.698349
vt 0.747600 0.667627
vt 0.453438 0.724409
vt 0.747600 0.667627
vt 0.408191 0.738383
vt 0.314726 0.761295
vt 0.292431 0.698349
vt 0.273433 0.698349
vt 0.000000 0.701564
vt 0.237816 0.774030
vt 0.408191 0.739715
vt 0.361462 0.756231
vt 0.361462 0.752699
s 1
usemtl BodyMat
f 1/1/1 14/2/2 13/3/3
f 2/4/4 14/2/2 16/5/5
f 1/1/1 13/3/3 18/6/6
f 1/1/1 18/6/6 20/7/7
f 1/1/1 20/7/7 17/8/8
f 2/9/4 16/10/5 23/11/9
f 3/12/10 15/13/11 25/14/12
f 4/15/13 19/16/14 27/17/15
f 5/18/16 21/19/17 29/20/18
f 6/21/19 22/22/20 31/23/21
f 2/9/4 23/11/9 26/24/22
f 3/25/10 25/26/12 28/27/23
f 4/15/13 27/17/15 30/28/24
f 5/18/16 29/20/18 32/29/25
f 6/30/19 31/31/21 24/32/26
f 7/33/27 33/34/28 38/35/29
f 8/36/30 34/37/31 40/38/32
f 9/39/33 35/40/34 41/41/35
f 10/42/36 36/43/37 42/44/38
f 11/45/39 37/46/40 39/47/41
f 39/48/41 42/44/38 12/49/42
f 39/48/41 37/50/40 42/44/38
f 37/50/40 10/42/36 42/44/38
f 42/44/38 41/41/35 12/49/42
f 42/44/38 36/43/37 41/41/35
f 36/43/37 9/39/33 41/41/35
f 41/41/35 40/38/32 12/49/42
f 41/41/35 35/40/34 40/38/32
f 35/40/34 8/36/30 40/38/32
f 40/38/32 38/35/29 12/49/42
f 40/38/32 34/37/31 38/35/29
f 34/37/31 7/33/27 38/35/29
f 38/35/29 39/48/41 12/49/42
f 38/35/29 33/34/28 39/48/41
f 33/51/28 11/45/39 39/47/41
f 24/32/26 37/46/40 11/45/39
f 24/32/26 31/31/21 37/46/40
f 31/23/21 10/52/36 37/53/40
f 32/29/25 36/54/37 10/52/36
f 32/29/25 29/20/18 36/54/37
f 29/20/18 9/55/33 36/54/37
f 30/28/24 35/56/34 9/57/33
f 30/28/24 27/17/15 35/56/34
f 27/17/15 8/58/30 35/56/34
f 28/27/23 34/59/31 8/58/30
f 28/27/23 25/26/12 34/59/31
f 25/60/12 7/33/27 34/37/31
f 26/24/22 33/51/28 7/61/27
f 26/24/22 23/11/9 33/51/28
f 23/11/9 11/45/39 33/51/28
f 31/23/21 32/29/25 10/52/36
f 31/23/21 22/22/20 32/29/25
f 22/22/20 5/18/16 32/29/25
f 29/62/18 30/28/24 9/57/33
f 29/62/18 21/63/17 30/28/24
f 21/63/17 4/15/13 30/28/24
f 27/17/15 28/27/23 8/58/30
f 27/17/15 19/16/14 28/27/23
f 19/16/14 3/25/10 28/27/23
f 25/64/12 26/24/22 7/61/27
f 25/64/12 15/65/11 26/24/22
f 15/65/11 2/9/4 26/24/22
f 23/11/9 24/32/26 11/45/39
f 23/11/9 16/10/5 24/32/26
f 16/10/5 6/30/19 24/32/26
f 17/66/8 22/22/20 6/21/19
f 17/66/8 20/67/7 22/22/20
f 20/67/7 5/18/16 22/22/20
f 20/67/7 21/19/17 5/18/16
f 20/7/7 18/6/6 21/68/17
f 18/69/6 4/15/13 21/63/17
f 18/69/6 19/16/14 4/15/13
f 18/6/6 13/3/3 19/70/14
f 13/3/3 3/12/10 19/70/14
f 16/5/5 17/8/8 6/71/19
f 16/5/5 14/2/2 17/8/8
f 14/2/2 1/1/1 17/8/8
f 13/3/3 15/13/11 3/12/10
f 13/3/3 14/2/2 15/13/11
f 14/2/2 2/4/4 15/13/11
usemtl EyesMat
f 43/72/43 46/73/44 45/74/45
f 45/75/45 50/76/46 49/77/47
f 50/78/46 47/79/48 49/80/47
f 48/81/49 43/82/43 47/83/48
f 45/84/45 47/85/48 43/86/43
f 46/87/44 48/88/49 50/89/46
f 51/90/50 54/91/51 52/92/52
f 53/93/53 58/94/54 54/95/51
f 55/96/55 58/97/54 57/98/56
f 51/99/50 56/100/57 55/101/55
f 53/102/53 55/103/55 57/104/56
f 56/105/57 54/106/51 58/107/54
f 43/72/43 44/108/58 46/73/44
f 45/75/45 46/109/44 50/76/46
f 50/78/46 48/110/49 47/79/48
f 48/81/49 44/111/58 43/82/43
f 45/84/45 49/112/47 47/85/48
f 46/87/44 44/113/58 48/88/49
f 51/90/50 53/114/53 54/91/51
f 53/93/53 57/115/56 58/94/54
f 55/96/55 56/116/57 58/97/54
f 51/99/50 52/117/52 56/100/57
f 53/102/53 51/118/50 55/103/55
f 56/105/57 52/119/52 54/106/51
