# Blender 3.6.4
# www.blender.org
mtllib test_multiple.mtl
o Cube
v 1.000000 1.000000 -1.000000
v 1.000000 -1.000000 -1.000000
v 1.000000 1.000000 1.000000
v 1.000000 -1.000000 1.000000
v -1.000000 1.000000 -1.000000
v -1.000000 -1.000000 -1.000000
v -1.000000 1.000000 1.000000
v -1.000000 -1.000000 1.000000
v -1.000000 -1.000000 -1.166647
v -1.000000 1.000000 -1.166647
v -1.000000 -1.000000 -3.166647
v -1.000000 1.000000 -3.166647
v 1.000000 -1.000000 -1.166647
v 1.000000 1.000000 -1.166647
v 1.000000 -1.000000 -3.166647
v 1.000000 1.000000 -3.166647
vn -0.0000 1.0000 -0.0000
vn -0.0000 -0.0000 1.0000
vn -1.0000 -0.0000 -0.0000
vn -0.0000 -1.0000 -0.0000
vn 1.0000 -0.0000 -0.0000
vn -0.0000 -0.0000 -1.0000
vt 0.875000 0.500000
vt 0.625000 0.750000
vt 0.625000 0.500000
vt 0.375000 1.000000
vt 0.375000 0.750000
vt 0.625000 0.000000
vt 0.375000 0.250000
vt 0.375000 0.000000
vt 0.375000 0.500000
vt 0.125000 0.750000
vt 0.125000 0.500000
vt 0.625000 0.250000
vt 0.875000 0.750000
vt 0.625000 1.000000
s 0
usemtl Material
f 5/1/1 3/2/1 1/3/1
f 3/2/2 8/4/2 4/5/2
f 7/6/3 6/7/3 8/8/3
f 2/9/4 8/10/4 6/11/4
f 1/3/5 4/5/5 2/9/5
f 5/12/6 2/9/6 6/7/6
f 5/1/1 7/13/1 3/2/1
f 3/2/2 7/14/2 8/4/2
f 7/6/3 5/12/3 6/7/3
f 2/9/4 4/5/4 8/10/4
f 1/3/5 3/2/5 4/5/5
f 5/12/6 1/3/6 2/9/6
usemtl Material.001
f 10/6/3 11/7/3 9/8/3
f 12/12/6 15/9/6 11/7/6
f 16/3/5 13/5/5 15/9/5
f 14/2/2 9/4/2 13/5/2
f 15/9/4 9/10/4 11/11/4
f 12/1/1 14/2/1 16/3/1
f 10/6/3 12/12/3 11/7/3
f 12/12/6 16/3/6 15/9/6
f 16/3/5 14/2/5 13/5/5
f 14/2/2 10/14/2 9/4/2
f 15/9/4 13/5/4 9/10/4
f 12/1/1 10/13/1 14/2/1
o Icosphere
v 0.000000 0.720761 0.000000
v 0.723607 1.273542 0.525725
v -0.276388 1.273541 0.850649
v -0.894426 1.273546 0.000000
v -0.276388 1.273541 -0.850649
v 0.723607 1.273542 -0.525725
v 0.276388 2.167981 0.850649
v -0.723607 2.167981 0.525725
v -0.723607 2.167981 -0.525725
v 0.276388 2.167981 -0.850649
v 0.894426 2.167977 0.000000
v 0.000000 2.720761 0.000000
v -0.162456 0.870107 0.499995
v 0.425323 0.870107 0.309011
v 0.262869 1.195024 0.809012
v 0.850648 1.195025 0.000000
v 0.425323 0.870107 -0.309011
v -0.525730 0.870109 0.000000
v -0.688189 1.195025 0.499997
v -0.162456 0.870107 -0.499995
v -0.688189 1.195025 -0.499997
v 0.262869 1.195024 -0.809012
v 0.951058 1.720761 0.309013
v 0.951058 1.720761 -0.309013
v 0.000000 1.720761 1.000000
v 0.587786 1.720761 0.809017
v -0.951058 1.720761 0.309013
v -0.587786 1.720761 0.809017
v -0.587786 1.720761 -0.809017
v -0.951058 1.720761 -0.309013
v 0.587786 1.720761 -0.809017
v 0.000000 1.720761 -1.000000
v 0.688189 2.246497 0.499997
v -0.262869 2.246499 0.809012
v -0.850648 2.246497 0.000000
v -0.262869 2.246499 -0.809012
v 0.688189 2.246497 -0.499997
v 0.162456 2.571415 0.499995
v 0.525730 2.571413 0.000000
v -0.425323 2.571415 0.309011
v -0.425323 2.571415 -0.309011
v 0.162456 2.571415 -0.499995
vn 0.1024 -0.9435 0.3151
vn 0.7002 -0.6617 0.2680
vn -0.2680 -0.9435 0.1947
vn -0.2680 -0.9435 -0.1947
vn 0.1024 -0.9435 -0.3151
vn 0.9050 -0.3304 0.2680
vn 0.0247 -0.3304 0.9435
vn -0.8897 -0.3304 0.3151
vn -0.5746 -0.3304 -0.7488
vn 0.5346 -0.3304 -0.7779
vn 0.8026 -0.1256 0.5831
vn -0.3066 -0.1256 0.9435
vn -0.9921 -0.1256 -0.0000
vn -0.3066 -0.1256 -0.9435
vn 0.8026 -0.1256 -0.5831
vn 0.4089 0.6617 0.6284
vn -0.4713 0.6617 0.5831
vn -0.7002 0.6617 -0.2680
vn 0.0385 0.6617 -0.7488
vn 0.7240 0.6617 -0.1947
vn 0.2680 0.9435 -0.1947
vn 0.4911 0.7947 -0.3568
vn 0.4089 0.6617 -0.6284
vn -0.1024 0.9435 -0.3151
vn -0.1876 0.7947 -0.5773
vn -0.4713 0.6617 -0.5831
vn -0.3313 0.9435 -0.0000
vn -0.6071 0.7947 -0.0000
vn -0.7002 0.6617 0.2680
vn -0.1024 0.9435 0.3151
vn -0.1876 0.7947 0.5773
vn 0.0385 0.6617 0.7488
vn 0.2680 0.9435 0.1947
vn 0.4911 0.7947 0.3568
vn 0.7240 0.6617 0.1947
vn 0.8897 0.3304 -0.3151
vn 0.7947 0.1876 -0.5773
vn 0.5746 0.3304 -0.7488
vn -0.0247 0.3304 -0.9435
vn -0.3035 0.1876 -0.9342
vn -0.5346 0.3304 -0.7779
vn -0.9050 0.3304 -0.2680
vn -0.9822 0.1876 -0.0000
vn -0.9050 0.3304 0.2680
vn -0.5346 0.3304 0.7779
vn -0.3035 0.1876 0.9342
vn -0.0247 0.3304 0.9435
vn 0.5746 0.3304 0.7488
vn 0.7947 0.1876 0.5773
vn 0.8897 0.3304 0.3151
vn 0.3066 0.1256 -0.9435
vn 0.3035 -0.1876 -0.9342
vn 0.0247 -0.3304 -0.9435
vn -0.8026 0.1256 -0.5831
vn -0.7947 -0.1876 -0.5773
vn -0.8897 -0.3304 -0.3151
vn -0.8026 0.1256 0.5831
vn -0.7947 -0.1876 0.5773
vn -0.5746 -0.3304 0.7488
vn 0.3066 0.1256 0.9435
vn 0.3035 -0.1876 0.9342
vn 0.5346 -0.3304 0.7779
vn 0.9921 0.1256 -0.0000
vn 0.9822 -0.1876 -0.0000
vn 0.9050 -0.3304 -0.2680
vn 0.4713 -0.6617 -0.5831
vn 0.1876 -0.7947 -0.5773
vn -0.0385 -0.6617 -0.7488
vn -0.4089 -0.6617 -0.6284
vn -0.4911 -0.7947 -0.3568
vn -0.7240 -0.6617 -0.1947
vn -0.7240 -0.6617 0.1947
vn -0.4911 -0.7947 0.3568
vn -0.4089 -0.6617 0.6284
vn 0.7002 -0.6617 -0.2680
vn 0.6071 -0.7947 -0.0000
vn 0.3313 -0.9435 -0.0000
vn -0.0385 -0.6617 0.7488
vn 0.1876 -0.7947 0.5773
vn 0.4713 -0.6617 0.5831
vt 0.181819 0.000000
vt 0.227273 0.078731
vt 0.136365 0.078731
vt 0.272728 0.157461
vt 0.318182 0.078731
vt 0.363637 0.157461
vt 0.909091 0.000000
vt 0.954545 0.078731
vt 0.863636 0.078731
vt 0.727273 0.000000
vt 0.772727 0.078731
vt 0.681818 0.078731
vt 0.545455 0.000000
vt 0.590909 0.078731
vt 0.500000 0.078731
vt 0.318182 0.236191
vt 0.090910 0.157461
vt 0.181819 0.157461
vt 0.136365 0.236191
vt 0.818182 0.157461
vt 0.909091 0.157461
vt 0.863636 0.236191
vt 0.636364 0.157461
vt 0.727273 0.157461
vt 0.681818 0.236191
vt 0.454546 0.157461
vt 0.545455 0.157461
vt 0.500000 0.236191
vt 0.227273 0.236191
vt 0.045455 0.236191
vt 0.772727 0.236191
vt 0.590909 0.236191
vt 0.409092 0.236191
vt 0.181819 0.314921
vt 0.272728 0.314921
vt 0.227273 0.393651
vt 0.000000 0.314921
vt 0.090910 0.314921
vt 0.045455 0.393651
vt 0.727273 0.314921
vt 0.818182 0.314921
vt 0.772727 0.393651
vt 0.545455 0.314921
vt 0.636364 0.314921
vt 0.590909 0.393651
vt 0.363637 0.314921
vt 0.454546 0.314921
vt 0.409092 0.393651
vt 0.500000 0.393651
vt 0.454546 0.472382
vt 0.681818 0.393651
vt 0.636364 0.472382
vt 0.863636 0.393651
vt 0.818182 0.472382
vt 0.909091 0.314921
vt 0.136365 0.393651
vt 0.090910 0.472382
vt 0.318182 0.393651
vt 0.272728 0.472382
vt 0.954545 0.236191
vt 1.000000 0.157461
vt 0.409092 0.078731
vt 0.363637 0.000000
s 0
usemtl Material
f 17/15/7 30/16/7 29/17/7
f 18/18/8 30/19/8 32/20/8
f 17/21/9 29/22/9 34/23/9
f 17/24/10 34/25/10 36/26/10
f 17/27/11 36/28/11 33/29/11
f 18/18/12 32/20/12 39/30/12
f 19/31/13 31/32/13 41/33/13
f 20/34/14 35/35/14 43/36/14
f 21/37/15 37/38/15 45/39/15
f 22/40/16 38/41/16 47/42/16
f 18/18/17 39/30/17 42/43/17
f 19/31/18 41/33/18 44/44/18
f 20/34/19 43/36/19 46/45/19
f 21/37/20 45/39/20 48/46/20
f 22/40/21 47/42/21 40/47/21
f 23/48/22 49/49/22 54/50/22
f 24/51/23 50/52/23 56/53/23
f 25/54/24 51/55/24 57/56/24
f 26/57/25 52/58/25 58/59/25
f 27/60/26 53/61/26 55/62/26
f 55/62/27 58/63/27 28/64/27
f 55/62/28 53/61/28 58/63/28
f 53/61/29 26/57/29 58/63/29
f 58/59/30 57/65/30 28/66/30
f 58/59/31 52/58/31 57/65/31
f 52/58/32 25/54/32 57/65/32
f 57/56/33 56/67/33 28/68/33
f 57/56/34 51/55/34 56/67/34
f 51/55/35 24/69/35 56/67/35
f 56/53/36 54/70/36 28/71/36
f 56/53/37 50/52/37 54/70/37
f 50/52/38 23/48/38 54/70/38
f 54/50/39 55/72/39 28/73/39
f 54/50/40 49/49/40 55/72/40
f 49/49/41 27/60/41 55/72/41
f 40/47/42 53/61/42 27/60/42
f 40/47/43 47/42/43 53/61/43
f 47/42/44 26/57/44 53/61/44
f 48/46/45 52/58/45 26/57/45
f 48/46/46 45/39/46 52/58/46
f 45/39/47 25/54/47 52/58/47
f 46/45/48 51/55/48 25/54/48
f 46/45/49 43/36/49 51/55/49
f 43/36/50 24/69/50 51/55/50
f 44/44/51 50/52/51 24/51/51
f 44/44/52 41/33/52 50/52/52
f 41/33/53 23/48/53 50/52/53
f 42/43/54 49/49/54 23/48/54
f 42/43/55 39/30/55 49/49/55
f 39/30/56 27/60/56 49/49/56
f 47/42/57 48/46/57 26/57/57
f 47/42/58 38/41/58 48/46/58
f 38/41/59 21/37/59 48/46/59
f 45/39/60 46/45/60 25/54/60
f 45/39/61 37/38/61 46/45/61
f 37/38/62 20/34/62 46/45/62
f 43/36/63 44/74/63 24/69/63
f 43/36/64 35/35/64 44/74/64
f 35/35/65 19/75/65 44/74/65
f 41/33/66 42/43/66 23/48/66
f 41/33/67 31/32/67 42/43/67
f 31/32/68 18/18/68 42/43/68
f 39/30/69 40/47/69 27/60/69
f 39/30/70 32/20/70 40/47/70
f 32/20/71 22/40/71 40/47/71
f 33/29/72 38/41/72 22/40/72
f 33/29/73 36/28/73 38/41/73
f 36/28/74 21/37/74 38/41/74
f 36/26/75 37/38/75 21/37/75
f 36/26/76 34/25/76 37/38/76
f 34/25/77 20/34/77 37/38/77
f 34/23/78 35/35/78 20/34/78
f 34/23/79 29/22/79 35/35/79
f 29/22/80 19/75/80 35/35/80
f 32/20/81 33/76/81 22/40/81
f 32/20/82 30/19/82 33/76/82
f 30/19/83 17/77/83 33/76/83
f 29/17/84 31/32/84 19/31/84
f 29/17/85 30/16/85 31/32/85
f 30/16/86 18/18/86 31/32/86
