# Blender 3.6.4
# www.blender.org
mtllib key.mtl
o Cube
v -0.112117 -0.264197 1.348340
v -0.072117 -0.264197 1.388340
v -0.072117 0.320989 1.388340
v -0.112117 0.320989 1.348340
v -0.072117 -0.224197 1.164106
v -0.072117 -0.264197 1.124106
v -0.112117 -0.304197 1.204106
v -0.072117 0.280989 1.164106
v -0.112117 0.360989 1.204106
v -0.072117 0.320989 1.124106
v 0.072117 -0.264197 1.388340
v 0.112117 -0.264197 1.348340
v 0.112117 0.320989 1.348340
v 0.072117 0.320989 1.388340
v 0.072117 -0.264197 1.124106
v 0.072117 -0.224197 1.164106
v 0.112117 -0.304197 1.204106
v 0.072117 0.320989 1.124106
v 0.112117 0.360989 1.204106
v 0.072117 0.280989 1.164106
v -0.112117 0.480989 1.348340
v -0.072117 0.480989 1.388340
v -0.072117 0.520989 1.348340
v -0.072117 0.520989 1.164106
v -0.112117 0.480989 1.164106
v 0.112117 0.480989 1.348340
v 0.072117 0.520989 1.348340
v 0.072117 0.480989 1.388340
v 0.112117 0.480989 1.164106
v 0.072117 0.520989 1.164106
v -0.112117 -0.424197 1.348340
v -0.072117 -0.464197 1.348340
v -0.072117 -0.424197 1.388340
v -0.112117 -0.424197 1.164106
v -0.072117 -0.464197 1.164106
v 0.112117 -0.424197 1.348340
v 0.072117 -0.424197 1.388340
v 0.072117 -0.464197 1.348340
v 0.072117 -0.464197 1.164106
v 0.112117 -0.424197 1.164106
v -0.072117 0.280989 0.562518
v -0.072117 0.320989 0.602518
v -0.112117 0.360989 0.522518
v 0.072117 0.280989 0.562518
v 0.112117 0.360989 0.522518
v 0.072117 0.320989 0.602518
v -0.072117 0.520989 0.562518
v -0.112117 0.480989 0.562518
v 0.112117 0.480989 0.562518
v 0.072117 0.520989 0.562518
v -0.112117 -0.264197 0.402518
v -0.072117 -0.264197 0.362518
v 0.072117 -0.264197 0.362518
v 0.112117 -0.264197 0.402518
v -0.072117 -0.464197 0.402518
v -0.112117 -0.424197 0.402518
v -0.072117 -0.424197 0.362518
v 0.072117 -0.464197 0.402518
v 0.072117 -0.424197 0.362518
v 0.112117 -0.424197 0.402518
v -0.072117 0.320989 0.362518
v -0.112117 0.320989 0.402518
v 0.112117 0.320989 0.402518
v 0.072117 0.320989 0.362518
v -0.072117 0.520989 0.402518
v -0.072117 0.480989 0.362518
v -0.112117 0.480989 0.402518
v 0.072117 0.520989 0.402518
v 0.112117 0.480989 0.402518
v 0.072117 0.480989 0.362518
v -0.112117 -0.304197 0.522518
v -0.072117 -0.264197 0.562518
v 0.072117 -0.264197 0.562518
v 0.112117 -0.304197 0.522518
v -0.112045 0.130888 0.402518
v -0.072058 0.170888 0.362518
v -0.072058 -0.053112 0.362518
v -0.112050 -0.013112 0.402518
v -0.072000 -0.053112 -1.446836
v -0.112000 -0.053112 -1.406836
v -0.072000 0.130888 -1.446836
v -0.112000 0.130888 -1.406836
v -0.072000 0.170888 -1.406836
v 0.112050 -0.013112 0.402518
v 0.072058 -0.053112 0.362518
v 0.072058 0.170888 0.362518
v 0.112045 0.130888 0.402518
v 0.112000 -0.053112 -1.406836
v 0.072000 -0.053112 -1.446836
v 0.072000 0.170888 -1.406836
v 0.112000 0.130888 -1.406836
v 0.072000 0.130888 -1.446836
v -0.072000 0.170888 -0.696366
v -0.112000 0.130888 -0.696366
v -0.072000 0.170888 -0.944875
v -0.112000 0.130888 -0.944875
v -0.112000 0.130888 -1.201624
v -0.072000 0.170888 -1.201624
v -0.112000 -0.013112 -1.241624
v -0.072000 -0.093112 -1.201624
v -0.072000 -0.053112 -1.161624
v -0.072000 -0.053112 -0.984874
v -0.072000 -0.093112 -0.944874
v -0.112000 -0.013112 -0.904874
v -0.111998 -0.013112 -0.736366
v -0.072000 -0.093112 -0.696366
v -0.072002 -0.053112 -0.656366
v 0.072002 -0.053112 -0.656366
v 0.072000 -0.093112 -0.696366
v 0.111998 -0.013112 -0.736366
v 0.112000 -0.013112 -0.904875
v 0.072000 -0.093112 -0.944875
v 0.072000 -0.053112 -0.984875
v 0.072000 -0.053112 -1.161624
v 0.072000 -0.093112 -1.201624
v 0.112000 -0.013112 -1.241624
v 0.072000 0.170888 -1.201624
v 0.112000 0.130888 -1.201624
v 0.072000 0.170888 -0.944874
v 0.112000 0.130888 -0.944874
v 0.112000 0.130888 -0.696366
v 0.072000 0.170888 -0.696366
v -0.112000 -0.457956 -0.904874
v -0.072000 -0.457956 -0.944874
v -0.072000 -0.497956 -0.904874
v -0.112000 -0.457956 -0.736366
v -0.072000 -0.497956 -0.736366
v -0.072000 -0.457956 -0.696366
v 0.112000 -0.457956 -0.736366
v 0.072000 -0.457956 -0.696366
v 0.072000 -0.497956 -0.736366
v 0.112000 -0.457956 -0.904875
v 0.072000 -0.497956 -0.904875
v 0.072000 -0.457956 -0.944875
v 0.072000 -0.481001 -1.446836
v 0.112000 -0.481001 -1.406836
v 0.072000 -0.521001 -1.406836
v -0.072000 -0.481001 -1.446836
v -0.072000 -0.521001 -1.406836
v -0.112000 -0.481001 -1.406836
v 0.112000 -0.481001 -1.241624
v 0.072000 -0.481001 -1.201624
v 0.072000 -0.521001 -1.241624
v -0.112000 -0.481001 -1.241624
v -0.072000 -0.521001 -1.241624
v -0.072000 -0.481001 -1.201624
v -0.072117 -0.053112 0.562518
v -0.112105 -0.053112 0.522518
v 0.112105 -0.053112 0.522518
v 0.072117 -0.053112 0.562518
v 0.072117 0.170888 0.562518
v 0.112105 0.170888 0.522518
v -0.072117 0.170888 0.562518
v -0.112105 0.170888 0.522518
v -0.112117 -0.424197 0.562518
v -0.072117 -0.464197 0.562518
v 0.112117 -0.424197 0.562518
v 0.072117 -0.464197 0.562518
vn -0.0000 -0.0000 1.0000
vn -0.0000 1.0000 -0.0000
vn 1.0000 -0.0000 -0.0000
vn -1.0000 -0.0000 -0.0000
vn -0.0000 -0.0000 -1.0000
vn -0.0000 -1.0000 -0.0000
vn 1.0000 -0.0004 -0.0004
vn 0.0500 -0.9718 -0.2304
vn 1.0000 0.0003 -0.0004
vn -1.0000 -0.0001 -0.0000
vn -1.0000 -0.0000 -0.0005
vn 1.0000 -0.0000 -0.0005
vn 0.2419 -0.1556 0.9577
vn -0.9045 0.3015 -0.3015
vn -0.9045 -0.3015 -0.3015
vn 0.9045 0.3015 -0.3015
vn 0.9045 -0.3015 -0.3015
vn -0.5774 0.5773 0.5774
vn 0.5774 0.5773 0.5774
vn -0.5774 -0.5774 0.5774
vn 0.5773 -0.5774 0.5774
vn -0.9045 -0.3015 0.3015
vn 0.9045 -0.3015 0.3015
vn -0.5774 -0.5774 -0.5774
vn 0.5774 -0.5774 -0.5774
vn -0.5774 0.5774 -0.5774
vn 0.5774 0.5774 -0.5774
vn -0.5774 0.5773 -0.5774
vn 0.5774 0.5773 -0.5774
vn -0.5774 -0.5773 -0.5774
vn -0.5774 -0.5773 0.5774
vn 0.5774 -0.5773 0.5774
vn 0.5774 -0.5774 -0.5773
vn 0.5774 -0.5773 -0.5774
vn -0.7071 -0.0000 0.7071
vn -0.7071 -0.0000 -0.7071
vn -0.0000 0.7071 -0.7071
vn -0.0000 -0.7071 -0.7071
vn 0.7071 -0.0000 -0.7071
vn 0.7071 -0.0000 0.7071
vn -0.7071 0.7071 -0.0000
vn 0.7071 0.7071 -0.0000
vn -0.0000 0.7071 0.7071
vn -0.7071 -0.7071 -0.0000
vn 0.7071 -0.7071 -0.0000
vn -0.0000 -0.7071 0.7071
vn -0.7072 -0.0000 0.7070
vn 0.7072 -0.0000 0.7070
vn -0.7072 0.7070 -0.0000
vn 0.7072 -0.7070 -0.0000
vn 0.7071 0.0002 -0.7071
vn -0.7072 -0.0000 0.7071
vn -0.7071 0.0002 -0.7071
vn -0.7071 -0.0003 -0.7071
vn 0.7071 -0.0003 -0.7071
vn -1.0000 0.0003 -0.0004
vn 1.0000 -0.0001 -0.0000
vn -0.7845 -0.5883 -0.1961
vn -0.3015 -0.9045 -0.3015
vn 0.2014 -0.9782 0.0504
vn -1.0000 -0.0004 -0.0004
vn -0.2419 0.1556 0.9577
vn 0.7072 -0.0000 0.7071
vn -0.7072 -0.7070 -0.0000
vn 0.7072 0.7070 -0.0000
vt 0.625000 0.794596
vt 0.375000 0.955404
vt 0.375000 0.794596
vt 0.375000 0.455404
vt 0.375000 0.294596
vt 0.375000 0.294596
vt 0.625000 0.544596
vt 0.625000 0.705404
vt 0.625000 0.705404
vt 0.357911 0.544596
vt 0.375000 0.705404
vt 0.625000 0.250000
vt 0.625000 0.250000
vt 0.669596 0.500000
vt 0.830404 0.500000
vt 0.375000 0.500000
vt 0.375000 0.500000
vt 0.375000 0.500000
vt 0.625000 0.955404
vt 0.625000 0.955404
vt 0.607911 0.294596
vt 0.392089 0.455404
vt 0.392089 0.294596
vt 0.169596 0.500000
vt 0.330404 0.500000
vt 0.625000 0.205404
vt 0.625000 0.044596
vt 0.375000 0.044596
vt 0.642089 0.205404
vt 0.357911 0.205404
vt 0.625000 0.500000
vt 0.375000 0.544596
vt 0.669596 0.705404
vt 0.169596 0.705404
vt 0.169596 0.500000
vt 0.625000 0.294596
vt 0.625000 0.455404
vt 0.625000 0.294620
vt 0.625000 0.455404
vt 0.625000 0.455380
vt 0.625000 0.250000
vt 0.375000 0.250000
vt 0.330404 0.500000
vt 0.375000 0.455404
vt 0.375000 0.294596
vt 0.375000 0.239805
vt 0.375000 0.197695
vt 0.375000 0.197695
vt 0.375000 0.455357
vt 0.375000 0.294643
vt 0.580357 0.510195
vt 0.419643 0.552305
vt 0.375000 0.510195
vt 0.830357 0.687500
vt 0.669620 0.750000
vt 0.669643 0.687500
vt 0.580357 0.294643
vt 0.419643 -0.002361
vt 0.580357 0.062500
vt 0.419643 0.064861
vt 0.169643 0.572237
vt 0.330357 0.615263
vt 0.169643 0.615263
vt 0.580357 0.125000
vt 0.419643 0.197237
vt 0.419643 0.115263
vt 0.419643 0.114940
vt 0.419643 0.072560
vt 0.169643 0.562500
vt 0.330357 0.562500
vt 0.330357 0.562500
vt 0.375000 0.677440
vt 0.375000 0.635060
vt 0.375000 0.552305
vt 0.375000 0.510195
vt 0.169643 0.635060
vt 0.330357 0.677440
vt 0.169643 0.677440
vt 0.580357 0.562500
vt 0.419643 0.634737
vt 0.419643 0.552763
vt 0.330359 0.689861
vt 0.169620 0.750000
vt 0.169641 0.689861
vt 0.669643 0.625000
vt 0.830357 0.687500
vt 0.669643 0.562500
vt 0.830357 0.625000
vt 0.669643 0.625000
vt 0.330357 0.510195
vt 0.169643 0.552305
vt 0.169643 0.510195
vt 0.580357 0.625000
vt 0.419643 0.677440
vt 0.419643 0.635060
vt 0.330357 0.625000
vt 0.169643 0.625000
vt 0.169643 0.625000
vt 0.169643 0.687500
vt 0.330357 0.687500
vt 0.330357 0.687500
vt 0.375000 0.114940
vt 0.375000 0.072560
vt 0.375000 0.072560
vt 0.419643 0.197695
vt 0.580357 0.239805
vt 0.375000 0.239805
vt 0.830357 0.510195
vt 0.669643 0.510195
vt 0.625000 0.794620
vt 0.580357 0.999985
vt 0.375000 0.955380
vt 0.580357 0.687500
vt 0.419643 0.752361
vt 0.419643 0.685139
vt 0.625000 0.250000
vt 0.625000 0.250000
vt 0.830404 0.500000
vt 0.625000 0.500000
vt 0.375000 0.250000
vt 0.625000 0.294596
vt 0.625000 0.500000
vt 0.625000 0.455404
vt 0.642089 0.544596
vt 0.607911 0.455404
vt 0.625000 0.000000
vt 0.625000 0.044596
vt 0.625000 0.750000
vt 0.125000 0.705404
vt 0.169596 0.750000
vt 0.330404 0.750000
vt 0.330404 0.705404
vt 0.125000 0.500000
vt 0.580357 0.250000
vt 0.625000 0.239805
vt 0.625000 0.455357
vt 0.580357 0.500000
vt 0.580357 0.455357
vt 0.375000 0.187500
vt 0.375000 0.125000
vt 0.375000 0.125000
vt 0.375000 0.114940
vt 0.375000 0.062500
vt 0.330357 0.572237
vt 0.125000 0.635060
vt 0.169643 0.625000
vt 0.125000 0.677440
vt 0.375000 0.677440
vt 0.330357 0.635060
vt 0.330357 0.625000
vt 0.330357 0.500000
vt 0.169643 0.500000
vt 0.125000 0.510195
vt 0.330357 0.552305
vt 0.125000 0.552305
vt 0.375000 0.000000
vt 0.375000 0.044596
vt 0.375000 0.044596
vt 0.375000 0.455404
vt 0.669596 0.500000
vt 0.580357 0.187500
vt 0.625000 0.187500
vt 0.125000 0.750000
vt 0.125000 0.687500
vt 0.625000 0.294643
vt 0.625000 0.000000
vt 0.580357 -0.002361
vt 0.625000 0.125000
vt 0.625000 0.062500
vt 0.125000 0.562500
vt 0.330380 0.750000
vt 0.375000 0.114940
vt 0.375000 0.239805
vt 0.625000 0.500000
vt 0.375000 0.455404
vt 0.375000 0.205404
vt 0.625000 0.500000
vt 0.830404 0.705404
vt 0.580357 0.562500
vt 0.830380 0.750000
vt 0.580357 0.125000
vt 0.830357 0.562500
vt 0.580357 0.687500
vt 0.830357 0.562500
vt 0.375000 0.794620
vt 0.419643 0.750010
vt 0.580357 0.750015
vt 0.625000 0.955380
vt 0.419643 0.999990
vt 0.580357 0.752361
vt 0.330404 0.750000
vt 0.125000 0.625000
s 0
usemtl Material.001
f 14/1/1 2/2/1 11/3/1
f 15/4/2 72/5/2 6/6/2
f 19/7/3 26/8/3 13/9/3
f 2/2/1 37/3/1 11/3/1
f 17/10/3 13/9/3 12/11/3
f 25/12/4 43/12/4 9/13/4
f 30/14/2 47/15/2 24/15/2
f 17/16/3 157/17/3 74/18/3
f 14/1/1 22/19/1 3/20/1
f 8/21/5 16/22/5 5/23/5
f 35/24/6 158/25/6 39/25/6
f 9/26/4 21/27/4 25/12/4
f 148/12/4 51/12/4 71/12/4
f 1/28/4 9/29/4 7/30/4
f 63/31/7 152/31/7 87/31/7
f 17/32/3 36/11/3 40/17/3
f 24/15/2 27/33/2 30/14/2
f 39/25/6 32/34/6 35/35/6
f 71/12/8 52/36/8 54/31/8
f 149/31/9 54/31/9 84/31/9
f 64/37/5 76/38/5 61/36/5
f 147/36/1 73/37/1 150/39/1
f 85/40/5 52/36/5 77/38/5
f 62/12/10 154/12/10 43/41/10
f 75/12/11 148/12/11 154/12/11
f 71/42/4 56/42/4 155/42/4
f 156/24/6 58/43/6 158/25/6
f 53/44/5 57/45/5 52/5/5
f 74/17/3 60/17/3 54/17/3
f 80/46/4 144/47/4 99/48/4
f 89/49/5 138/50/5 79/50/5
f 91/51/3 116/52/3 88/53/3
f 93/54/2 86/55/2 122/56/2
f 81/57/5 89/49/5 79/50/5
f 78/58/4 94/59/4 105/60/4
f 152/31/12 84/31/12 87/31/12
f 101/61/6 113/62/6 102/63/6
f 96/64/4 99/65/4 104/66/4
f 94/59/4 104/67/4 105/68/4
f 100/69/1 142/70/1 115/71/1
f 110/72/3 132/73/3 111/73/3
f 88/53/3 141/74/3 136/75/3
f 125/76/6 131/77/6 127/78/6
f 118/79/3 111/80/3 116/81/3
f 108/82/6 77/83/6 107/84/6
f 119/85/2 93/86/2 122/56/2
f 117/87/2 95/88/2 119/89/2
f 137/90/6 145/91/6 139/92/6
f 120/93/3 110/94/3 111/95/3
f 112/96/5 124/97/5 103/98/5
f 106/99/1 130/100/1 109/101/1
f 153/36/1 150/37/1 151/39/1
f 104/102/4 126/103/4 105/104/4
f 99/105/4 82/106/4 80/107/4
f 83/108/2 117/87/2 90/109/2
f 86/110/13 75/111/13 77/112/13
f 121/113/3 84/114/3 110/115/3
f 43/116/4 67/117/4 62/12/4
f 50/14/2 65/118/2 47/15/2
f 61/36/5 70/37/5 64/37/5
f 45/119/3 69/31/3 49/31/3
f 7/120/4 155/42/4 34/42/4
f 41/121/1 151/37/1 44/39/1
f 19/122/3 49/31/3 29/31/3
f 10/36/6 46/37/6 18/123/6
f 5/23/14 6/6/14 7/30/14
f 8/21/15 9/13/15 10/36/15
f 15/4/16 16/22/16 17/16/16
f 18/123/17 19/124/17 20/125/17
f 21/27/18 22/126/18 23/127/18
f 26/128/19 27/1/19 28/1/19
f 31/129/20 32/34/20 33/130/20
f 36/11/21 37/131/21 38/132/21
f 41/121/22 42/36/22 43/41/22
f 44/39/23 45/31/23 46/37/23
f 55/35/24 56/133/24 57/24/24
f 58/43/25 59/25/25 60/17/25
f 65/12/26 66/12/26 67/117/26
f 68/37/27 69/31/27 70/37/27
f 81/134/28 82/106/28 83/135/28
f 90/136/29 91/137/29 92/138/29
f 99/48/22 100/139/22 101/139/22
f 102/140/15 103/141/15 104/142/15
f 105/103/22 106/143/22 107/143/22
f 108/82/23 109/101/23 110/115/23
f 111/73/17 112/96/17 113/62/17
f 114/144/23 115/71/23 116/81/23
f 123/145/30 124/146/30 125/76/30
f 126/147/31 127/78/31 128/99/31
f 129/148/32 130/100/32 131/77/32
f 132/73/33 133/149/33 134/150/33
f 135/151/34 136/53/34 137/90/34
f 138/152/30 139/92/30 140/153/30
f 141/74/32 142/70/32 143/154/32
f 144/155/31 145/91/31 146/69/31
f 3/126/35 1/28/35 2/156/35
f 8/21/36 7/30/36 9/29/36
f 6/6/37 16/22/37 15/4/37
f 18/123/38 8/21/38 10/36/38
f 19/124/39 16/22/39 20/125/39
f 11/3/40 13/9/40 14/1/40
f 24/12/41 21/27/41 23/127/41
f 27/33/42 29/31/42 30/14/42
f 23/20/43 28/1/43 27/1/43
f 14/1/40 26/8/40 28/1/40
f 22/126/35 4/27/35 3/126/35
f 32/34/44 34/133/44 35/35/44
f 39/25/45 36/11/45 38/132/45
f 38/132/46 33/130/46 32/34/46
f 37/3/40 12/11/40 11/3/40
f 31/157/35 2/156/35 1/158/35
f 41/121/46 46/37/46 42/36/46
f 9/13/44 42/36/44 10/36/44
f 19/122/45 46/37/45 45/31/45
f 47/12/41 25/12/41 24/12/41
f 30/14/42 49/31/42 50/14/42
f 55/35/38 59/25/38 58/43/38
f 53/44/39 60/17/39 59/159/39
f 51/42/36 57/45/36 56/42/36
f 35/24/44 155/133/44 156/35/44
f 58/43/45 157/17/45 158/25/45
f 68/37/37 66/36/37 65/36/37
f 67/117/36 61/36/36 62/12/36
f 63/31/39 70/37/39 69/31/39
f 50/14/42 69/31/42 68/160/42
f 48/12/41 65/12/41 67/117/41
f 79/50/36 82/106/36 81/57/36
f 83/135/41 97/161/41 98/162/41
f 148/12/47 72/36/47 147/36/47
f 152/31/48 44/39/48 151/37/48
f 107/84/44 78/163/44 105/164/44
f 83/165/37 92/138/37 81/57/37
f 88/53/39 92/138/39 91/51/39
f 86/55/42 121/113/42 122/56/42
f 76/166/49 94/59/49 75/167/49
f 95/168/41 94/59/41 93/169/41
f 98/162/41 96/64/41 95/168/41
f 102/63/44 99/170/44 101/61/44
f 108/82/50 84/114/50 85/171/50
f 113/62/45 116/81/45 111/80/45
f 117/87/42 91/51/42 90/109/42
f 119/89/42 118/79/42 117/87/42
f 122/56/42 120/93/42 119/85/42
f 101/61/46 115/71/46 114/144/46
f 112/96/38 102/63/38 113/62/38
f 107/84/46 109/101/46 108/82/46
f 127/78/44 123/145/44 125/76/44
f 133/149/45 129/148/45 131/77/45
f 133/149/38 124/97/38 134/150/38
f 128/99/46 131/77/46 130/100/46
f 126/103/35 106/143/35 105/104/35
f 129/148/40 109/101/40 130/100/40
f 112/96/39 132/73/39 134/150/39
f 103/141/36 123/172/36 104/102/36
f 139/92/38 135/151/38 137/90/38
f 137/90/45 141/74/45 143/154/45
f 145/91/44 140/153/44 139/92/44
f 146/69/46 143/154/46 142/70/46
f 115/71/40 141/74/40 116/74/40
f 89/49/39 136/75/39 135/49/39
f 144/47/35 100/139/35 99/48/35
f 80/46/36 138/50/36 140/173/36
f 148/12/47 153/36/47 154/12/47
f 149/31/40 73/37/40 74/174/40
f 152/31/48 150/37/48 149/31/48
f 85/40/51 54/31/51 53/39/51
f 154/12/52 41/121/52 43/41/52
f 51/12/53 77/38/53 52/36/53
f 62/12/54 76/38/54 75/12/54
f 86/40/55 63/31/55 87/31/55
f 156/24/44 56/133/44 55/35/44
f 158/25/45 40/17/45 39/25/45
f 15/4/42 74/18/42 73/175/42
f 6/6/41 71/42/41 7/120/41
f 7/176/4 31/157/4 1/158/4
f 14/1/1 3/20/1 2/2/1
f 15/4/2 73/175/2 72/5/2
f 19/7/3 29/31/3 26/8/3
f 2/2/1 33/2/1 37/3/1
f 17/10/3 19/124/3 13/9/3
f 25/12/4 48/12/4 43/12/4
f 30/14/2 50/14/2 47/15/2
f 17/16/3 40/17/3 157/17/3
f 14/1/1 28/1/1 22/19/1
f 8/21/5 20/125/5 16/22/5
f 35/24/6 156/35/6 158/25/6
f 9/26/4 4/27/4 21/27/4
f 148/12/56 78/41/56 51/12/56
f 1/28/4 4/127/4 9/29/4
f 63/31/57 45/177/57 152/31/57
f 17/32/3 12/11/3 36/11/3
f 24/15/2 23/178/2 27/33/2
f 39/25/6 38/132/6 32/34/6
f 54/31/58 74/31/58 73/39/58
f 73/39/46 72/36/46 71/12/46
f 71/12/59 51/12/59 52/36/59
f 52/36/6 53/37/6 54/31/6
f 54/31/60 73/39/60 71/12/60
f 149/31/3 74/174/3 54/31/3
f 64/37/5 86/40/5 76/38/5
f 147/36/1 72/36/1 73/37/1
f 85/40/5 53/39/5 52/36/5
f 62/12/61 75/12/61 154/12/61
f 75/12/11 78/116/11 148/12/11
f 71/42/4 51/42/4 56/42/4
f 156/24/6 55/35/6 58/43/6
f 53/44/5 59/159/5 57/45/5
f 74/17/3 157/17/3 60/17/3
f 80/46/4 140/173/4 144/47/4
f 89/49/5 135/49/5 138/50/5
f 91/51/3 118/179/3 116/52/3
f 93/54/2 76/180/2 86/55/2
f 81/57/5 92/138/5 89/49/5
f 78/58/4 75/167/4 94/59/4
f 152/31/12 149/31/12 84/31/12
f 101/61/6 114/144/6 113/62/6
f 96/64/4 97/161/4 99/65/4
f 94/59/4 96/181/4 104/67/4
f 100/69/1 146/69/1 142/70/1
f 110/72/3 129/148/3 132/73/3
f 88/53/3 116/74/3 141/74/3
f 125/76/6 133/149/6 131/77/6
f 118/79/3 120/93/3 111/80/3
f 108/82/6 85/171/6 77/83/6
f 119/85/2 95/88/2 93/86/2
f 117/87/2 98/182/2 95/88/2
f 137/90/6 143/154/6 145/91/6
f 120/93/3 121/183/3 110/94/3
f 112/96/5 134/150/5 124/97/5
f 106/99/1 128/99/1 130/100/1
f 153/36/1 147/36/1 150/37/1
f 104/102/4 123/172/4 126/103/4
f 99/105/4 97/161/4 82/106/4
f 83/108/2 98/184/2 117/87/2
f 77/112/46 85/185/46 84/186/46
f 84/186/47 87/187/47 86/110/47
f 86/110/43 76/188/43 75/111/43
f 75/111/48 78/189/48 77/112/48
f 77/112/62 84/186/62 86/110/62
f 121/113/3 87/190/3 84/114/3
f 43/116/4 48/12/4 67/117/4
f 50/14/2 68/160/2 65/118/2
f 61/36/5 66/36/5 70/37/5
f 45/119/3 63/31/3 69/31/3
f 7/120/4 71/42/4 155/42/4
f 41/121/1 153/36/1 151/37/1
f 19/122/3 45/31/3 49/31/3
f 10/36/6 42/36/6 46/37/6
f 3/126/35 4/127/35 1/28/35
f 8/21/36 5/23/36 7/30/36
f 6/6/37 5/23/37 16/22/37
f 18/123/38 20/125/38 8/21/38
f 19/124/39 17/10/39 16/22/39
f 11/3/40 12/11/40 13/9/40
f 24/12/41 25/12/41 21/27/41
f 27/33/42 26/8/42 29/31/42
f 23/20/43 22/19/43 28/1/43
f 14/1/40 13/9/40 26/8/40
f 22/126/35 21/27/35 4/27/35
f 32/34/44 31/129/44 34/133/44
f 39/25/45 40/17/45 36/11/45
f 38/132/46 37/191/46 33/130/46
f 37/3/40 36/11/40 12/11/40
f 31/157/35 33/156/35 2/156/35
f 41/121/46 44/39/46 46/37/46
f 9/13/44 43/12/44 42/36/44
f 19/122/45 18/123/45 46/37/45
f 47/12/41 48/12/41 25/12/41
f 30/14/42 29/31/42 49/31/42
f 55/35/38 57/24/38 59/25/38
f 53/44/39 54/17/39 60/17/39
f 51/42/36 52/5/36 57/45/36
f 35/24/44 34/133/44 155/133/44
f 58/43/45 60/17/45 157/17/45
f 68/37/37 70/37/37 66/36/37
f 67/117/36 66/36/36 61/36/36
f 63/31/39 64/37/39 70/37/39
f 50/14/42 49/31/42 69/31/42
f 48/12/41 47/12/41 65/12/41
f 79/50/36 80/107/36 82/106/36
f 83/135/41 82/106/41 97/161/41
f 148/12/35 71/12/35 72/36/35
f 152/31/63 45/177/63 44/39/63
f 107/84/64 77/83/64 78/163/64
f 83/165/37 90/136/37 92/138/37
f 88/53/39 89/49/39 92/138/39
f 86/55/65 87/190/65 121/113/65
f 76/166/41 93/169/41 94/59/41
f 95/168/41 96/181/41 94/59/41
f 98/162/41 97/161/41 96/64/41
f 102/63/44 104/192/44 99/170/44
f 108/82/45 110/115/45 84/114/45
f 113/62/45 114/144/45 116/81/45
f 117/87/42 118/179/42 91/51/42
f 119/89/42 120/93/42 118/79/42
f 122/56/42 121/183/42 120/93/42
f 101/61/46 100/69/46 115/71/46
f 112/96/38 103/98/38 102/63/38
f 107/84/46 106/99/46 109/101/46
f 127/78/44 126/147/44 123/145/44
f 133/149/45 132/73/45 129/148/45
f 133/149/38 125/76/38 124/97/38
f 128/99/46 127/78/46 131/77/46
f 126/103/35 128/143/35 106/143/35
f 129/148/40 110/72/40 109/101/40
f 112/96/39 111/73/39 132/73/39
f 103/141/36 124/140/36 123/172/36
f 139/92/38 138/152/38 135/151/38
f 137/90/45 136/75/45 141/74/45
f 145/91/44 144/155/44 140/153/44
f 146/69/46 145/91/46 143/154/46
f 115/71/40 142/70/40 141/74/40
f 89/49/39 88/53/39 136/75/39
f 144/47/35 146/139/35 100/139/35
f 80/46/36 79/50/36 138/50/36
f 148/12/47 147/36/47 153/36/47
f 149/31/48 150/39/48 73/37/48
f 152/31/48 151/39/48 150/37/48
f 85/40/51 84/31/51 54/31/51
f 154/12/47 153/36/47 41/121/47
f 51/12/53 78/41/53 77/38/53
f 62/12/54 61/36/54 76/38/54
f 86/40/55 64/37/55 63/31/55
f 156/24/44 155/133/44 56/133/44
f 158/25/45 157/17/45 40/17/45
f 15/4/42 17/16/42 74/18/42
f 6/6/41 72/5/41 71/42/41
f 7/176/4 34/42/4 31/157/4
