# Blender 3.6.4
# www.blender.org
mtllib skull.mtl
o Icosphere
v 0.003841 -1.346677 -0.324243
v -1.084394 -0.718465 -1.073605
v 0.419501 -0.664537 -1.776026
v 1.348971 -0.716799 -0.251559
v 0.419501 -0.936902 1.455300
v -1.084394 -0.698958 0.604288
v -0.411820 0.611712 -1.525032
v 1.092076 0.611712 -1.036378
v 1.092075 0.636034 0.558789
v -0.411820 0.723578 1.153838
v -1.341289 0.611706 -0.245738
v 0.003841 1.443040 -0.245738
v 0.248158 -1.211352 -1.235268
v -0.635803 -1.216003 -0.930627
v -0.391488 -0.782621 -1.713407
v -1.275451 -0.846796 -0.246505
v -0.635803 -1.173984 0.401023
v 0.794487 -1.142286 -0.316426
v 1.038811 -0.842621 -1.022285
v 0.248158 -1.189892 0.762860
v 1.038810 -0.849033 0.545484
v -0.391489 -0.936902 1.455300
v -1.426458 -0.060863 -0.710463
v -1.426458 -0.058267 0.219648
v 0.003841 -0.055087 -1.770681
v -0.880132 -0.059883 -1.465990
v 1.434139 -0.060863 -0.710463
v 0.887813 -0.055088 -1.483459
v 0.887813 0.203066 1.086285
v 1.434139 -0.060021 0.219201
v -0.880132 0.217395 1.055657
v 0.003840 0.210654 1.379583
v -1.031129 0.729793 -0.997685
v 0.399170 0.729795 -1.462413
v 1.283132 0.729793 -0.245738
v 0.399170 0.833146 1.089052
v -1.031129 0.741902 0.516987
v -0.240477 1.218438 -0.997682
v -0.786806 1.218434 -0.245738
v 0.643485 1.218438 -0.710461
v 0.643484 1.219908 0.220665
v -0.240477 1.227103 0.516108
vn -0.0499 -0.9859 -0.1598
vn -0.6777 -0.6866 -0.2631
vn 0.2503 -0.9652 -0.0763
vn 0.2486 -0.9650 0.0833
vn -0.0834 -0.9835 0.1606
vn -0.9079 -0.3283 -0.2607
vn -0.0712 -0.0398 -0.9967
vn 0.8932 -0.3298 -0.3056
vn 0.8230 -0.1618 0.5446
vn -0.7861 -0.1231 0.6057
vn -0.8064 -0.0974 -0.5833
vn 0.3019 0.2140 -0.9290
vn 0.9917 -0.1287 0.0001
vn 0.3114 0.1744 0.9341
vn -0.8183 -0.0967 0.5666
vn -0.4089 0.6617 -0.6284
vn 0.4713 0.6617 -0.5831
vn 0.6956 0.6757 0.2439
vn -0.0582 0.7911 0.6089
vn -0.7259 0.6634 0.1819
vn -0.2687 0.9459 0.1819
vn -0.4910 0.8008 0.3430
vn -0.4612 0.7525 0.4702
vn 0.1091 0.9466 0.3033
vn 0.1535 0.8859 0.4378
vn 0.5521 0.6928 0.4639
vn 0.3303 0.9439 -0.0015
vn 0.6076 0.7942 -0.0013
vn 0.7002 0.6617 -0.2680
vn 0.1024 0.9435 -0.3151
vn 0.1876 0.7947 -0.5773
vn -0.0385 0.6617 -0.7488
vn -0.2680 0.9435 -0.1947
vn -0.4911 0.7947 -0.3568
vn -0.7240 0.6617 -0.1947
vn -0.8935 0.3272 0.3075
vn -0.8468 0.2424 0.4734
vn -0.6295 0.4611 0.6254
vn 0.0168 0.4141 0.9101
vn 0.3079 0.2348 0.9220
vn 0.6160 0.4750 0.6284
vn 0.9113 0.3239 0.2542
vn 0.9822 0.1877 -0.0002
vn 0.9050 0.3304 -0.2680
vn 0.5330 0.3525 -0.7692
vn 0.3019 0.2129 -0.9293
vn 0.0202 0.3567 -0.9340
vn -0.5733 0.3340 -0.7481
vn -0.7959 0.1890 -0.5752
vn -0.8897 0.3304 -0.3151
vn -0.3401 0.1341 0.9308
vn -0.3374 0.1772 0.9245
vn -0.0000 0.0658 0.9978
vn 0.8558 0.1849 0.4831
vn 0.8088 -0.1728 0.5621
vn 0.8976 -0.3278 0.2949
vn 0.8096 0.1350 -0.5712
vn 0.8028 -0.1791 -0.5687
vn 0.7208 -0.2421 -0.6495
vn -0.3232 0.1431 -0.9354
vn -0.3247 0.1024 -0.9403
vn -0.6734 -0.2129 -0.7079
vn -0.9920 0.1259 -0.0004
vn -0.9821 -0.1884 0.0005
vn -0.9079 -0.3281 0.2609
vn -0.6232 -0.7196 0.3062
vn -0.1171 -0.9628 0.2436
vn -0.0000 -0.9393 0.3432
vn 0.4354 -0.8749 0.2119
vn 0.4306 -0.8846 0.1789
vn 0.5982 -0.7950 0.1009
vn 0.6132 -0.7809 -0.1193
vn 0.4589 -0.8638 -0.2079
vn 0.4701 -0.6907 -0.5495
vn -0.6402 -0.7196 0.2688
vn -0.4773 -0.8783 0.0277
vn -0.2279 -0.9732 0.0307
vn 0.0491 -0.7101 -0.7024
vn -0.1741 -0.8375 -0.5180
vn -0.5488 -0.6469 -0.5295
vt 0.815652 0.524150
vt 0.808194 0.464139
vt 0.868124 0.486516
vt 0.790419 0.436465
vt 0.744408 0.471977
vt 0.856928 0.558722
vt 0.781130 0.591990
vt 0.750199 0.534399
vt 0.581795 0.850527
vt 0.565268 0.900830
vt 0.527306 0.862958
vt 0.615361 0.754464
vt 0.611234 0.793936
vt 0.572551 0.754464
vt 0.731187 0.866933
vt 0.717056 0.831245
vt 0.774340 0.836443
vt 0.717056 1.000000
vt 0.723473 0.924953
vt 0.796214 0.961951
vt 0.868679 0.766894
vt 0.821393 0.815092
vt 0.828019 0.725425
vt 0.554058 0.805085
vt 0.310603 0.935336
vt 0.299686 0.890420
vt 0.355461 0.919407
vt 0.778460 0.892009
vt 0.770490 0.831245
vt 0.717055 0.762228
vt 0.769013 0.750995
vt 0.878656 0.711917
vt 0.519757 0.764127
vt 0.490884 0.810896
vt 0.470184 0.764703
vt 0.395701 0.885063
vt 0.344298 0.863122
vt 0.398133 0.829250
vt 0.824775 0.923468
vt 0.828991 0.868983
vt 0.859746 0.918009
vt 0.784967 0.706074
vt 0.732086 0.714013
vt 0.768998 0.663813
vt 0.862011 0.661776
vt 0.830635 0.677770
vt 0.812177 0.635701
vt 0.756986 0.637707
vt 0.413161 0.754464
vt 0.441628 0.801250
vt 0.392402 0.778120
vt 0.717055 0.674972
vt 0.835527 0.978185
vt 0.443468 0.864225
vt 0.342359 0.800263
vt 0.300811 0.835747
vt 0.351284 0.754464
vt 0.443468 0.822380
vt 0.474305 0.862254
vt 0.417651 0.919714
vt 0.372918 0.946980
vt 0.502222 0.906574
vt 0.535628 0.928789
vt 0.717055 0.600409
vt 0.717366 0.525034
vt 0.759875 0.635701
vt 0.832123 0.614507
vt 0.883112 0.585761
vt 0.900366 0.531722
vt 0.900366 0.464758
vt 0.854895 0.432915
vt 0.614109 0.852977
s 0
usemtl Material
f 1/1/1 14/2/1 13/3/1
f 2/4/2 14/2/2 16/5/2
f 1/1/3 13/3/3 18/6/3
f 1/1/4 18/6/4 20/7/4
f 1/1/5 20/7/5 17/8/5
f 2/9/6 16/10/6 23/11/6
f 3/12/7 15/13/7 25/14/7
f 4/15/8 19/16/8 27/17/8
f 5/18/9 21/19/9 29/20/9
f 6/21/10 22/22/10 31/23/10
f 2/9/11 23/11/11 26/24/11
f 3/25/12 25/26/12 28/27/12
f 4/15/13 27/17/13 30/28/13
f 5/29/14 29/30/14 32/31/14
f 6/21/15 31/23/15 24/32/15
f 7/33/16 33/34/16 38/35/16
f 8/36/17 34/37/17 40/38/17
f 9/39/18 35/40/18 41/41/18
f 10/42/19 36/43/19 42/44/19
f 11/45/20 37/46/20 39/47/20
f 39/47/21 42/44/21 12/48/21
f 39/47/22 37/46/22 42/44/22
f 37/46/23 10/42/23 42/44/23
f 42/49/24 41/50/24 12/51/24
f 42/44/25 36/43/25 41/52/25
f 36/53/26 9/39/26 41/41/26
f 41/50/27 40/38/27 12/51/27
f 41/50/28 35/54/28 40/38/28
f 35/54/29 8/36/29 40/38/29
f 40/38/30 38/55/30 12/51/30
f 40/38/31 34/37/31 38/55/31
f 34/37/32 7/56/32 38/55/32
f 38/55/33 39/57/33 12/51/33
f 38/35/34 33/34/34 39/58/34
f 33/34/35 11/59/35 39/58/35
f 24/32/36 37/46/36 11/45/36
f 24/32/37 31/23/37 37/46/37
f 31/23/38 10/42/38 37/46/38
f 32/31/39 36/43/39 10/42/39
f 32/31/40 29/30/40 36/43/40
f 29/20/41 9/39/41 36/53/41
f 30/28/42 35/40/42 9/39/42
f 30/28/43 27/17/43 35/40/43
f 27/60/44 8/36/44 35/54/44
f 28/27/45 34/37/45 8/36/45
f 28/27/46 25/26/46 34/37/46
f 25/26/47 7/56/47 34/37/47
f 26/24/48 33/34/48 7/33/48
f 26/24/49 23/11/49 33/34/49
f 23/11/50 11/59/50 33/34/50
f 31/23/51 32/31/51 10/42/51
f 31/23/52 22/22/52 32/31/52
f 22/22/53 5/29/53 32/31/53
f 29/20/54 30/28/54 9/39/54
f 29/20/55 21/19/55 30/28/55
f 21/19/56 4/15/56 30/28/56
f 27/60/57 28/27/57 8/36/57
f 27/60/58 19/61/58 28/27/58
f 19/61/59 3/25/59 28/27/59
f 25/14/60 26/24/60 7/33/60
f 25/14/61 15/13/61 26/24/61
f 15/13/62 2/9/62 26/24/62
f 23/11/63 24/62/63 11/59/63
f 23/11/64 16/10/64 24/62/64
f 16/10/65 6/63/65 24/62/65
f 17/8/66 22/64/66 6/65/66
f 17/8/67 20/7/67 22/64/67
f 20/7/68 5/66/68 22/64/68
f 20/7/69 21/67/69 5/66/69
f 20/7/70 18/6/70 21/67/70
f 18/6/71 4/68/71 21/67/71
f 18/6/72 19/69/72 4/68/72
f 18/6/73 13/3/73 19/69/73
f 13/3/74 3/70/74 19/69/74
f 16/5/75 17/8/75 6/65/75
f 16/5/76 14/2/76 17/8/76
f 14/2/77 1/1/77 17/8/77
f 13/3/78 15/71/78 3/70/78
f 13/3/79 14/2/79 15/71/79
f 14/72/80 2/9/80 15/13/80
o Cube
v 0.773466 -1.812166 0.048425
v 1.079237 -0.922642 -0.304891
v 0.394390 -1.976078 1.102664
v 0.432455 -0.657954 1.360489
v -0.773466 -1.812166 0.048425
v -1.079237 -0.922642 -0.304891
v -0.394390 -1.976078 1.102664
v -0.432455 -0.657954 1.360489
v 1.070782 -1.667439 -0.105097
v 1.070782 -1.389423 -0.176595
v 1.070782 -1.142165 -0.203663
v 0.419501 -0.936902 1.455300
v 0.429067 -1.640827 1.292892
v 0.429067 -1.880224 1.327650
v -0.391489 -0.936902 1.455300
v -0.429067 -1.640827 1.292892
v -0.429067 -1.880224 1.327650
v -1.070781 -1.142165 -0.203663
v -1.070781 -1.389423 -0.176595
v -1.070781 -1.667439 -0.105097
v 0.626476 -1.921441 0.751251
v 0.773808 -1.866803 0.399838
v 1.079714 -0.834413 0.250236
v 0.631423 -0.746184 0.805362
v -0.773809 -1.866803 0.399838
v -0.626476 -1.921441 0.751251
v -0.631423 -0.746184 0.805362
v -1.079714 -0.834413 0.250235
v -0.626476 -1.809296 0.850067
v -1.071255 -1.738367 0.372485
v -0.626476 -1.557026 0.803063
v -1.071255 -1.473224 0.313234
v -0.626476 -1.064379 0.864285
v -1.071255 -1.103272 0.330311
v 1.071255 -1.738367 0.372485
v 0.626476 -1.809296 0.850067
v 1.071255 -1.473224 0.313234
v 0.626476 -1.557026 0.803063
v 1.071255 -1.103272 0.330311
v 0.626476 -1.064379 0.864285
vn 0.9461 0.0640 0.3175
vn -0.0000 0.3218 0.9468
vn -0.9995 -0.0310 0.0014
vn -0.0000 -0.4187 -0.9081
vn -0.0000 -0.9881 -0.1536
vn -0.0000 0.9876 -0.1570
vn -0.0000 -0.7276 -0.6860
vn -0.0000 -0.2491 -0.9685
vn -0.0000 -0.1088 -0.9941
vn -0.3813 -0.9134 -0.1424
vn -1.0000 -0.0002 -0.0010
vn -1.0000 -0.0000 -0.0010
vn -0.0000 -0.9200 0.3920
vn -0.0000 0.1437 0.9896
vn -0.0000 -0.2248 0.9744
vn 0.7907 -0.4047 0.4593
vn 0.9197 0.0564 0.3885
vn 0.9292 -0.0456 0.3667
vn 1.0000 -0.0000 -0.0010
vn 0.7426 -0.0309 0.6690
vn 1.0000 -0.0002 -0.0010
vn 0.7162 0.1278 0.6860
vn 0.3813 -0.9134 -0.1424
vn 0.3982 -0.9170 0.0244
vn -0.9292 -0.0456 0.3667
vn -0.7426 -0.0309 0.6690
vn -0.9197 0.0564 0.3885
vn -0.7162 0.1278 0.6860
vn -0.7907 -0.4047 0.4593
vn -0.3982 -0.9170 0.0244
vn -0.9284 -0.0101 0.3713
vn -0.7679 0.1051 0.6319
vn 0.9995 -0.0310 0.0014
vn 0.7679 0.1051 0.6319
vn 0.9427 0.0465 0.3305
vn -0.9993 -0.0362 0.0049
vn -0.0000 -0.4188 -0.9081
vn -0.3757 -0.9166 -0.1365
vn -1.0000 -0.0003 -0.0010
vn -1.0000 -0.0001 -0.0009
vn 0.6990 -0.6904 0.1864
vn 0.9208 0.0714 0.3833
vn 0.9372 -0.0663 0.3425
vn 1.0000 -0.0001 -0.0009
vn 0.7631 -0.0797 0.6414
vn 1.0000 -0.0003 -0.0010
vn 0.7187 0.1516 0.6786
vn 0.3757 -0.9166 -0.1365
vn 0.6735 -0.4887 0.5546
vn -0.9258 -0.0374 0.3762
vn -0.7631 -0.0797 0.6414
vn -0.9208 0.0714 0.3833
vn -0.7187 0.1516 0.6786
vn -0.6990 -0.6904 0.1864
vn -0.6735 -0.4887 0.5546
vn -0.9427 0.0465 0.3305
vn -0.7805 0.1558 0.6055
vn 0.9993 -0.0362 0.0049
vn 0.7805 0.1558 0.6055
vt 0.082188 0.141137
vt -0.000000 -0.000000
vt 0.092577 0.004329
vt 0.597023 0.432915
vt 0.716585 0.525441
vt 0.597493 0.525441
vt 0.637598 0.295096
vt 0.576633 0.416237
vt 0.568027 0.285370
vt 0.876436 0.000000
vt 0.816573 0.298380
vt 0.816573 0.001173
vt 0.299686 0.521407
vt 0.596958 0.432915
vt 0.597023 0.521407
vt 0.299686 0.715271
vt 0.000066 0.856449
vt 0.000000 0.715271
vt 0.682757 0.001173
vt 0.637598 0.298380
vt 0.637598 0.001173
vt 0.754851 0.001173
vt 0.682756 0.298380
vt 0.754851 0.298380
vt 0.408898 0.298624
vt 0.401655 0.379896
vt 0.376073 0.296741
vt 0.476757 0.303186
vt 0.442841 0.411762
vt 0.514316 0.418816
vt 0.507900 0.754464
vt 0.393621 0.698391
vt 0.503088 0.698391
vt 0.597493 0.679254
vt 0.716585 0.739588
vt 0.597493 0.739588
vt 0.716585 0.679254
vt 0.266656 0.172121
vt 0.318799 0.110086
vt 0.291120 0.200222
vt 0.241755 0.052620
vt 0.302383 0.053044
vt 0.202413 0.174190
vt 0.123282 0.418816
vt 0.069570 0.285370
vt 0.160841 0.303186
vt 0.194756 0.411761
vt 0.228700 0.298624
vt 0.235942 0.379895
vt 0.261525 0.296741
vt 0.395843 0.052620
vt 0.555410 0.141137
vt 0.435185 0.174190
vt 0.370941 0.172121
vt 0.335214 0.053044
vt 0.318799 0.110087
vt 0.346477 0.200222
vt 0.209859 0.432915
vt 0.062214 0.574093
vt 0.089827 0.432915
vt 0.237472 0.574093
vt 0.535297 0.609899
vt 0.361412 0.609899
vt 0.637598 0.000000
vt 0.545021 0.004329
vt 0.636474 0.143806
vt 0.060965 0.416237
vt 0.000000 0.295096
vt 0.001123 0.143806
vt 0.717055 0.432915
vt 0.634677 0.432915
vt 0.876436 0.299553
vt 0.299751 0.432915
vt 0.299619 0.856449
vt 0.388808 0.754464
vt 0.002921 0.432915
s 0
usemtl Material
f 82/73/81 46/74/81 54/75/81
f 46/76/82 57/77/82 54/78/82
f 70/79/83 60/80/83 76/81/83
f 48/82/84 53/83/84 60/84/84
f 67/85/85 43/86/85 64/87/85
f 65/88/86 48/89/86 70/90/86
f 62/91/87 43/92/87 47/93/87
f 61/94/88 51/95/88 62/91/88
f 60/84/89 52/96/89 61/94/89
f 72/97/90 47/98/90 67/99/90
f 74/100/91 62/101/91 72/97/91
f 76/81/92 61/102/92 74/100/92
f 56/103/93 49/104/93 45/105/93
f 55/106/94 59/107/94 56/108/94
f 55/106/95 57/77/95 58/109/95
f 78/110/96 45/111/96 63/112/96
f 78/110/97 55/113/97 56/114/97
f 82/73/98 55/113/98 80/115/98
f 52/116/99 81/117/99 79/118/99
f 81/117/100 80/115/100 79/118/100
f 51/119/101 79/118/101 77/120/101
f 77/120/102 80/115/102 78/110/102
f 43/121/103 77/120/103 64/122/103
f 77/120/104 63/112/104 64/122/104
f 58/123/105 75/124/105 73/125/105
f 73/125/106 76/81/106 74/100/106
f 58/123/107 71/126/107 59/127/107
f 73/125/108 72/97/108 71/126/108
f 49/128/109 71/126/109 68/129/109
f 68/129/110 72/97/110 67/99/110
f 46/130/86 69/131/86 50/132/86
f 66/133/86 70/90/86 69/131/86
f 49/104/85 63/134/85 45/105/85
f 68/135/85 64/87/85 63/134/85
f 50/136/111 75/124/111 57/137/111
f 69/138/112 76/81/112 75/124/112
f 53/139/113 65/140/113 81/117/113
f 81/117/114 66/141/114 82/73/114
f 82/73/115 66/141/115 46/74/115
f 46/76/82 50/142/82 57/77/82
f 70/79/116 48/143/116 60/80/116
f 48/82/117 44/144/117 53/83/117
f 67/85/85 47/145/85 43/86/85
f 65/88/86 44/146/86 48/89/86
f 62/91/87 51/95/87 43/92/87
f 61/94/88 52/96/88 51/95/88
f 60/84/89 53/83/89 52/96/89
f 72/97/118 62/101/118 47/98/118
f 74/100/119 61/102/119 62/101/119
f 76/81/120 60/80/120 61/102/120
f 56/103/93 59/147/93 49/104/93
f 55/106/94 58/109/94 59/107/94
f 55/106/95 54/78/95 57/77/95
f 78/110/121 56/114/121 45/111/121
f 78/110/122 80/115/122 55/113/122
f 82/73/123 54/75/123 55/113/123
f 52/116/124 53/139/124 81/117/124
f 81/117/125 82/73/125 80/115/125
f 51/119/126 52/116/126 79/118/126
f 77/120/127 79/118/127 80/115/127
f 43/121/128 51/119/128 77/120/128
f 77/120/129 78/110/129 63/112/129
f 58/123/130 57/137/130 75/124/130
f 73/125/131 75/124/131 76/81/131
f 58/123/132 73/125/132 71/126/132
f 73/125/133 74/100/133 72/97/133
f 49/128/134 59/127/134 71/126/134
f 68/129/135 71/126/135 72/97/135
f 46/130/86 66/133/86 69/131/86
f 66/133/86 65/88/86 70/90/86
f 49/104/85 68/135/85 63/134/85
f 68/135/85 67/85/85 64/87/85
f 50/136/136 69/138/136 75/124/136
f 69/138/137 70/79/137 76/81/137
f 53/139/138 44/148/138 65/140/138
f 81/117/139 65/140/139 66/141/139
