# Blender 3.6.4
# www.blender.org
mtllib torch.mtl
o Cylinder
v 0.000000 0.694145 0.101444
v 0.000000 0.712696 0.116746
v -0.087853 0.694145 0.050722
v -0.101105 0.712696 0.058373
v -0.087853 0.694145 -0.050722
v -0.101105 0.712696 -0.058373
v -0.000000 0.694145 -0.101444
v -0.000000 0.712696 -0.116746
v 0.087853 0.694145 -0.050722
v 0.101105 0.712696 -0.058373
v 0.087853 0.694145 0.050722
v 0.101105 0.712696 0.058373
v 0.000000 -0.566762 0.069272
v -0.059992 -0.566762 0.034636
v -0.059992 -0.566762 -0.034636
v -0.000000 -0.566762 -0.069272
v 0.059992 -0.566762 -0.034636
v 0.059992 -0.566762 0.034636
v 0.000000 -0.584562 0.078225
v -0.067745 -0.584562 0.039113
v -0.067745 -0.584562 -0.039113
v -0.000000 -0.584562 -0.078225
v 0.067745 -0.584562 -0.039113
v 0.067745 -0.584562 0.039113
v 0.000000 -0.687409 0.078225
v -0.067745 -0.687409 0.039113
v -0.067745 -0.687409 -0.039113
v -0.000000 -0.687409 -0.078225
v 0.067745 -0.687409 -0.039113
v 0.067745 -0.687409 0.039113
v 0.000000 -0.705209 0.048418
v -0.041931 -0.705209 0.024209
v -0.041931 -0.705209 -0.024209
v -0.000000 -0.705209 -0.048418
v 0.041931 -0.705209 -0.024209
v 0.041931 -0.705209 0.024209
v 0.000000 0.768562 0.116746
v -0.101105 0.768562 0.058373
v -0.101105 0.768562 -0.058373
v -0.000000 0.768562 -0.116746
v 0.101105 0.768562 -0.058373
v 0.101105 0.768562 0.058373
v 0.000000 0.784879 0.113871
v -0.098615 0.784879 0.056935
v -0.098615 0.784879 -0.056935
v -0.000000 0.784879 -0.113871
v 0.098615 0.784879 -0.056935
v 0.098615 0.784879 0.056935
v 0.000000 1.195276 0.122776
v -0.106327 1.195276 0.061388
v -0.106327 1.195276 -0.061388
v -0.000000 1.195276 -0.122776
v 0.106327 1.195276 -0.061388
v 0.106327 1.195276 0.061388
v -0.000000 1.594005 0.141548
v -0.122585 1.594005 0.070774
v -0.122585 1.594005 -0.070774
v -0.000000 1.594005 -0.141548
v 0.122584 1.594005 -0.070774
v 0.122584 1.594005 0.070774
v 0.121392 1.252237 0.070086
v 0.000000 1.252237 0.140171
v -0.000000 1.252237 -0.140171
v 0.121392 1.252237 -0.070086
v -0.121392 1.252237 0.070086
v -0.121392 1.252237 -0.070086
v -0.000000 1.616790 0.061677
v -0.053414 1.616790 0.030839
v -0.053414 1.616790 -0.030838
v -0.000000 1.616790 -0.061677
v 0.053414 1.616790 -0.030839
v 0.053414 1.616790 0.030838
v -0.000000 0.372240 -0.093230
v -0.080740 0.372240 -0.046615
v 0.000000 0.372240 0.093230
v 0.080740 0.372240 0.046615
v 0.080740 0.372240 -0.046615
v -0.080740 0.372240 0.046615
v -0.000000 0.355634 -0.100500
v 0.000000 0.355634 0.100500
v 0.087036 0.355634 -0.050250
v -0.087036 0.355634 -0.050250
v 0.087036 0.355634 0.050250
v -0.087036 0.355634 0.050250
v -0.000000 0.284151 -0.098676
v 0.000000 0.284151 0.098676
v 0.085456 0.284151 -0.049338
v -0.085456 0.284151 -0.049338
v 0.085456 0.284151 0.049338
v -0.085456 0.284151 0.049338
v -0.000000 0.271947 -0.090672
v 0.000000 0.271947 0.090672
v 0.078524 0.271947 -0.045336
v -0.078524 0.271947 -0.045336
v 0.078524 0.271947 0.045336
v -0.078524 0.271947 0.045336
vn -0.4069 -0.5813 0.7047
vn -0.8137 -0.5813 -0.0000
vn -0.4069 -0.5813 -0.7047
vn 0.4069 -0.5813 -0.7047
vn -1.0000 -0.0000 -0.0000
vn 0.8137 -0.5813 -0.0000
vn 0.4069 -0.5813 0.7047
vn -0.4999 -0.0221 -0.8658
vn -0.4584 0.3993 -0.7940
vn 0.4999 -0.0221 0.8658
vn 0.4999 -0.0221 -0.8658
vn -0.9998 -0.0221 -0.0000
vn 0.9998 -0.0221 -0.0000
vn -0.4999 -0.0221 0.8658
vn -0.4584 0.3993 0.7940
vn 0.4584 0.3993 0.7940
vn 0.4584 0.3993 -0.7940
vn -0.9168 0.3993 -0.0000
vn 0.9168 0.3993 -0.0000
vn -0.2838 -0.8232 0.4916
vn 1.0000 -0.0000 -0.0000
vn -0.5000 -0.0000 -0.8660
vn -0.5000 -0.0000 0.8660
vn 0.5000 -0.0000 0.8660
vn 0.5000 -0.0000 -0.8660
vn -0.0000 -1.0000 -0.0000
vn 0.2838 -0.8232 0.4916
vn 0.2838 -0.8232 -0.4916
vn -0.5677 -0.8232 -0.0000
vn 0.5677 -0.8232 -0.0000
vn -0.2838 -0.8232 -0.4916
vn 0.4943 0.1509 0.8561
vn 0.9998 -0.0188 -0.0000
vn 0.4943 0.1508 -0.8561
vn -0.9886 0.1509 -0.0000
vn 0.9886 0.1509 -0.0000
vn -0.4943 0.1509 -0.8561
vn -0.4943 0.1508 0.8561
vn 0.5000 -0.0035 0.8660
vn -0.4999 -0.0188 -0.8659
vn -0.4999 -0.0188 0.8659
vn 0.4999 -0.0188 0.8659
vn 0.4999 -0.0188 -0.8659
vn -0.9998 -0.0188 -0.0000
vn 0.3129 0.9498 -0.0000
vn 0.5000 -0.0035 -0.8660
vn -1.0000 -0.0035 -0.0000
vn 1.0000 -0.0035 -0.0000
vn -0.5000 -0.0035 -0.8660
vn -0.5000 -0.0035 0.8660
vn -0.4834 -0.2557 0.8372
vn -0.4834 -0.2557 -0.8372
vn 0.9668 -0.2557 -0.0000
vn -0.9668 -0.2557 -0.0000
vn 0.4834 -0.2557 -0.8372
vn 0.4834 -0.2557 0.8372
vn -0.0000 1.0000 -0.0000
vn -0.1564 0.9498 -0.2709
vn -0.1564 0.9498 0.2709
vn 0.1564 0.9498 0.2709
vn 0.1564 0.9498 -0.2709
vn -0.3129 0.9498 -0.0000
vn -0.4675 0.3545 0.8098
vn 0.9351 0.3545 -0.0000
vn -0.9351 0.3545 -0.0000
vn 0.4675 0.3545 -0.8098
vn 0.4675 0.3545 0.8098
vn -0.4675 0.3545 -0.8098
vn -0.4348 -0.4939 0.7530
vn 0.8695 -0.4939 -0.0000
vn -0.8695 -0.4939 -0.0000
vn 0.4348 -0.4939 -0.7530
vn 0.4348 -0.4939 0.7530
vn -0.4348 -0.4939 -0.7530
vn 0.4943 0.1508 0.8561
vn 0.4943 0.1509 -0.8561
vn -0.9886 0.1508 -0.0000
vn 0.9886 0.1508 -0.0000
vn -0.4943 0.1508 -0.8561
vt 0.273721 0.301309
vt 0.254845 0.256999
vt 0.277074 0.295501
vt 0.248139 0.256999
vt 0.277074 0.218497
vt 0.036452 0.386487
vt 0.084264 0.394584
vt 0.039806 0.394584
vt 0.251492 0.124069
vt 0.270368 0.168379
vt 0.248139 0.129877
vt 0.010870 0.386234
vt 0.036452 0.362003
vt 0.277074 0.168379
vt 0.248139 0.206881
vt 0.160522 0.386487
vt 0.208333 0.394584
vt 0.163875 0.394584
vt 0.081904 0.579589
vt 0.046855 0.947107
vt 0.042166 0.579589
vt 0.077214 0.947107
vt 0.044893 0.954927
vt 0.205973 0.579589
vt 0.170924 0.947107
vt 0.166235 0.579589
vt 0.101772 0.579393
vt 0.031676 0.946957
vt 0.022297 0.579393
vt 0.155745 0.946957
vt 0.146367 0.579393
vt 0.225841 0.579393
vt 0.201284 0.947107
vt 0.027752 0.999831
vt 0.027752 0.954758
vt 0.216463 0.946957
vt 0.203245 0.954927
vt 0.168963 0.954927
vt 0.092394 0.946957
vt 0.079176 0.954927
vt 0.151821 0.954758
vt 0.277074 0.325301
vt 0.306764 0.329379
vt 0.306764 0.342442
vt 0.151821 0.999831
vt 0.044893 1.000000
vt 0.220387 0.954758
vt 0.203245 1.000000
vt 0.168963 1.000000
vt 0.096318 0.954758
vt 0.079176 1.000000
vt 0.288387 0.318769
vt 0.306764 0.286940
vt 0.325141 0.318769
vt 0.336454 0.325301
vt 0.336454 0.291018
vt 0.306764 0.273877
vt 0.277074 0.291018
vt 0.325141 0.297550
vt 0.288387 0.297550
vt 0.160522 0.362003
vt 0.211056 0.354846
vt 0.211686 0.362003
vt 0.134939 0.386234
vt 0.211686 0.386487
vt 0.237269 0.361751
vt 0.237269 0.386234
vt 0.087617 0.362003
vt 0.087617 0.386487
vt 0.113199 0.361751
vt 0.113199 0.386234
vt 0.136199 0.354600
vt 0.159200 0.175009
vt 0.161152 0.354846
vt 0.111939 0.354600
vt 0.010870 0.361751
vt 0.037082 0.354846
vt 0.134939 0.361751
vt 0.086987 0.354846
vt 0.236009 0.354600
vt 0.278747 0.249384
vt 0.119056 -0.138061
vt 0.279528 -0.138061
vt 0.088938 0.175009
vt 0.239911 0.174743
vt 0.213008 0.175009
vt 0.115842 0.174743
vt 0.012130 0.354600
vt 0.035131 0.175009
vt 0.498737 0.182091
vt 0.438183 0.056580
vt 0.498737 0.091542
vt -0.042197 0.249384
vt 0.038820 -0.138853
vt 0.037259 0.248600
vt -0.280563 0.248600
vt -0.201888 -0.138061
vt -0.201107 0.249384
vt 0.040381 0.248600
vt 0.119837 0.249384
vt -0.041416 -0.138061
vt 0.358203 0.248600
vt 0.359764 -0.138853
vt 0.338482 0.313175
vt -0.191247 0.313862
vt -0.052057 0.313862
vt 0.060103 0.313175
vt 0.129697 0.313862
vt -0.260841 0.313175
vt 0.017537 0.313175
vt 0.268887 0.313862
vt 0.559292 0.056580
vt 0.498737 -0.048304
vt 0.359764 -0.058617
vt 0.438183 -0.013342
vt 0.637710 0.101855
vt 0.559292 -0.013342
vt 0.637710 -0.058617
vt 0.359764 0.101855
vt 0.498737 -0.138853
vt 0.230562 0.394364
vt 0.206533 0.535641
vt 0.145245 0.535439
vt 0.141646 0.394364
vt 0.021176 0.535439
vt 0.017576 0.394364
vt 0.106493 0.394364
vt 0.082464 0.535641
vt 0.165675 0.535641
vt 0.041605 0.535641
vt 0.091620 0.673243
vt 0.072783 0.680738
vt 0.071190 0.673445
vt 0.030331 0.673445
vt 0.006716 0.680521
vt 0.009902 0.673243
vt 0.017990 0.542717
vt 0.102894 0.535439
vt 0.084057 0.542934
vt 0.028738 0.680738
vt 0.040012 0.542934
vt 0.094806 0.680521
vt 0.072384 0.712061
vt 0.007515 0.711848
vt 0.018789 0.574044
vt 0.106080 0.542717
vt 0.083658 0.574258
vt 0.029138 0.712061
vt 0.040412 0.574258
vt 0.298697 0.273877
vt 0.280582 0.236425
vt 0.300451 0.270838
vt 0.278828 0.198973
vt 0.296943 0.161521
vt 0.300451 0.161521
vt 0.298697 0.198973
vt 0.277074 0.236425
vt 0.278828 0.124069
vt 0.277074 0.127108
vt 0.030892 0.717393
vt 0.273721 0.212689
vt 0.251492 0.212689
vt 0.220387 0.999831
vt 0.096318 0.999831
vt 0.132297 0.174743
vt 0.008227 0.174743
vt -0.282124 -0.138853
vt 0.038820 -0.138853
vt 0.226963 0.535439
vt 0.094007 0.711848
vt 0.105280 0.574044
vt 0.277074 0.195935
vt 0.300451 0.202011
vt 0.070630 0.717393
s 0
usemtl Material.001
f 91/19/8 15/20/8 94/21/8
f 16/22/9 21/23/9 15/20/9
f 92/24/10 18/25/10 95/26/10
f 93/27/11 16/22/11 91/19/11
f 94/21/12 14/28/12 96/29/12
f 95/26/13 17/30/13 93/31/13
f 96/32/14 13/33/14 92/24/14
f 21/23/5 26/34/5 20/35/5
f 14/36/15 19/37/15 13/33/15
f 13/33/16 24/38/16 18/25/16
f 17/39/17 22/40/17 16/22/17
f 15/20/18 20/35/18 14/28/18
f 18/25/19 23/41/19 17/30/19
f 26/42/20 31/43/20 25/44/20
f 24/38/21 29/45/21 23/41/21
f 22/40/22 27/46/22 21/23/22
f 20/47/23 25/48/23 19/37/23
f 19/37/24 30/49/24 24/38/24
f 23/50/25 28/51/25 22/40/25
f 32/52/26 34/53/26 36/54/26
f 25/44/27 36/54/27 30/55/27
f 29/56/28 34/53/28 28/57/28
f 27/58/29 32/52/29 26/42/29
f 30/55/30 35/59/30 29/56/30
f 27/58/31 34/53/31 33/60/31
f 47/72/33 54/73/33 48/74/33
f 45/77/40 52/84/40 46/79/40
f 43/62/41 50/85/41 44/80/41
f 48/74/42 49/86/42 43/62/42
f 47/75/43 52/84/43 53/87/43
f 44/88/44 51/89/44 45/77/44
f 3/121/14 75/122/14 1/17/14
f 11/18/13 77/123/13 9/124/13
f 5/8/12 78/125/12 3/126/12
f 9/127/11 73/128/11 7/7/11
f 1/17/10 76/129/10 11/18/10
f 7/7/8 74/130/8 5/8/8
f 91/19/8 16/22/8 15/20/8
f 16/22/9 22/40/9 21/23/9
f 92/24/10 13/33/10 18/25/10
f 93/27/11 17/39/11 16/22/11
f 94/21/12 15/20/12 14/28/12
f 95/26/13 18/25/13 17/30/13
f 96/32/14 14/36/14 13/33/14
f 21/23/5 27/46/5 26/34/5
f 14/36/15 20/47/15 19/37/15
f 13/33/16 19/37/16 24/38/16
f 17/39/17 23/50/17 22/40/17
f 15/20/18 21/23/18 20/35/18
f 18/25/19 24/38/19 23/41/19
f 26/42/20 32/52/20 31/43/20
f 24/38/21 30/49/21 29/45/21
f 22/40/22 28/51/22 27/46/22
f 20/47/23 26/163/23 25/48/23
f 19/37/24 25/48/24 30/49/24
f 23/50/25 29/164/25 28/51/25
f 36/54/26 31/43/26 32/52/26
f 32/52/26 33/60/26 34/53/26
f 34/53/26 35/59/26 36/54/26
f 25/44/27 31/43/27 36/54/27
f 29/56/28 35/59/28 34/53/28
f 27/58/29 33/60/29 32/52/29
f 30/55/30 36/54/30 35/59/30
f 27/58/31 28/57/31 34/53/31
f 47/72/33 53/165/33 54/73/33
f 45/77/40 51/89/40 52/84/40
f 43/62/41 49/86/41 50/85/41
f 48/74/42 54/73/42 49/86/42
f 47/75/43 46/79/43 52/84/43
f 44/88/44 50/166/44 51/89/44
f 3/121/14 78/169/14 75/122/14
f 11/18/13 76/129/13 77/123/13
f 5/8/12 74/130/12 78/125/12
f 9/127/11 77/138/11 73/128/11
f 1/17/10 75/122/10 76/129/10
f 7/7/8 73/128/8 74/130/8
usemtl Material.002
f 62/81/39 60/82/39 55/83/39
f 60/90/45 71/91/45 72/92/45
f 63/93/46 59/94/46 64/95/46
f 65/96/47 57/97/47 66/98/47
f 64/99/48 60/82/48 61/100/48
f 66/98/49 58/101/49 63/93/49
f 65/102/50 55/83/50 56/103/50
f 50/104/51 62/81/51 65/102/51
f 51/105/52 63/93/52 52/106/52
f 53/107/53 61/100/53 54/108/53
f 50/109/54 66/98/54 51/105/54
f 52/106/55 64/95/55 53/110/55
f 54/108/56 62/81/56 49/111/56
f 67/112/57 71/91/57 69/113/57
f 58/114/58 69/113/58 70/115/58
f 55/116/59 68/117/59 56/118/59
f 60/90/60 67/112/60 55/116/60
f 59/119/61 70/115/61 71/91/61
f 56/118/62 69/113/62 57/120/62
f 62/81/39 61/100/39 60/82/39
f 60/90/45 59/119/45 71/91/45
f 63/93/46 58/101/46 59/94/46
f 65/96/47 56/167/47 57/97/47
f 64/99/48 59/168/48 60/82/48
f 66/98/49 57/97/49 58/101/49
f 65/102/50 62/81/50 55/83/50
f 50/104/51 49/111/51 62/81/51
f 51/105/52 66/98/52 63/93/52
f 53/107/53 64/99/53 61/100/53
f 50/109/54 65/96/54 66/98/54
f 52/106/55 63/93/55 64/95/55
f 54/108/56 61/100/56 62/81/56
f 69/113/57 68/117/57 67/112/57
f 67/112/57 72/92/57 71/91/57
f 71/91/57 70/115/57 69/113/57
f 58/114/58 57/120/58 69/113/58
f 55/116/59 67/112/59 68/117/59
f 60/90/60 72/92/60 67/112/60
f 59/119/61 58/114/61 70/115/61
f 56/118/62 68/117/62 69/113/62
usemtl Material.003
f 2/1/1 3/2/1 1/3/1
f 4/4/2 5/5/2 3/2/2
f 6/6/3 7/7/3 5/8/3
f 8/9/4 9/10/4 7/11/4
f 4/12/5 39/13/5 6/6/5
f 10/14/6 11/15/6 9/10/6
f 12/16/7 1/17/7 11/18/7
f 42/61/32 43/62/32 37/63/32
f 10/64/21 42/61/21 12/16/21
f 2/65/23 38/66/23 4/67/23
f 6/6/22 40/68/22 8/69/22
f 12/16/24 37/63/24 2/65/24
f 8/69/25 41/70/25 10/71/25
f 40/68/34 47/75/34 41/70/34
f 38/76/35 45/77/35 39/13/35
f 41/78/36 48/74/36 42/61/36
f 39/13/37 46/79/37 40/68/37
f 38/66/38 43/62/38 44/80/38
f 78/131/63 80/132/63 75/133/63
f 76/134/64 81/135/64 77/136/64
f 74/130/65 84/137/65 78/125/65
f 77/138/66 79/139/66 73/128/66
f 76/134/67 80/132/67 83/140/67
f 74/130/68 79/139/68 82/141/68
f 84/142/14 86/143/14 80/132/14
f 83/140/13 87/144/13 81/135/13
f 82/141/12 90/145/12 84/137/12
f 81/146/11 85/147/11 79/139/11
f 80/132/10 89/148/10 83/140/10
f 79/139/8 88/149/8 82/141/8
f 86/150/69 96/151/69 92/152/69
f 89/153/70 93/154/70 87/155/70
f 88/156/71 96/151/71 90/157/71
f 85/158/72 93/154/72 91/159/72
f 86/143/73 95/160/73 89/148/73
f 85/147/74 94/21/74 88/149/74
f 2/1/1 4/4/1 3/2/1
f 4/4/2 6/161/2 5/5/2
f 6/6/3 8/69/3 7/7/3
f 8/9/4 10/14/4 9/10/4
f 4/12/5 38/76/5 39/13/5
f 10/14/6 12/162/6 11/15/6
f 12/16/7 2/65/7 1/17/7
f 42/61/75 48/74/75 43/62/75
f 10/64/21 41/78/21 42/61/21
f 2/65/23 37/63/23 38/66/23
f 6/6/22 39/13/22 40/68/22
f 12/16/24 42/61/24 37/63/24
f 8/69/25 40/68/25 41/70/25
f 40/68/76 46/79/76 47/75/76
f 38/76/77 44/88/77 45/77/77
f 41/78/78 47/72/78 48/74/78
f 39/13/79 45/77/79 46/79/79
f 38/66/38 37/63/38 43/62/38
f 78/131/63 84/142/63 80/132/63
f 76/134/64 83/140/64 81/135/64
f 74/130/65 82/141/65 84/137/65
f 77/138/66 81/146/66 79/139/66
f 76/134/67 75/133/67 80/132/67
f 74/130/68 73/128/68 79/139/68
f 84/142/14 90/170/14 86/143/14
f 83/140/13 89/148/13 87/144/13
f 82/141/12 88/149/12 90/145/12
f 81/146/11 87/171/11 85/147/11
f 80/132/10 86/143/10 89/148/10
f 79/139/8 85/147/8 88/149/8
f 86/150/69 90/157/69 96/151/69
f 89/153/70 95/172/70 93/154/70
f 88/156/71 94/173/71 96/151/71
f 85/158/72 87/155/72 93/154/72
f 86/143/73 92/174/73 95/160/73
f 85/147/74 91/19/74 94/21/74
