# Blender 3.6.4
# www.blender.org
mtllib spawn.mtl
o Icosphere
v -0.004899 -0.481950 -0.031123
v 0.227028 -0.052036 0.272481
v -0.229868 -0.036547 0.340111
v -0.481538 0.076654 -0.152086
v -0.241294 0.045210 -0.518021
v 0.465547 -0.033062 -0.261090
v 0.010297 0.470858 0.420614
v -0.448123 0.513313 0.064533
v -0.285399 0.638047 -0.509461
v 0.262938 0.519126 -0.529802
v 0.458299 0.625982 -0.073579
v 0.000000 1.000000 0.000000
vn 0.0960 -0.6082 0.7879
vn 0.7313 -0.6100 0.3052
vn -0.7624 -0.5958 0.2528
vn -0.6619 -0.6468 -0.3789
vn 0.2098 -0.6110 -0.7634
vn 0.9093 -0.1046 0.4028
vn 0.1357 -0.2176 0.9666
vn -0.8942 -0.1422 0.4245
vn -0.8368 -0.0544 -0.5447
vn 0.2898 -0.3307 -0.8981
vn 0.7203 0.1043 0.6857
vn -0.5966 0.1576 0.7869
vn -0.9550 0.1872 -0.2301
vn -0.0345 0.0119 -0.9993
vn 0.9005 0.1282 -0.4156
vn 0.5383 0.5308 0.6546
vn -0.4853 0.5382 0.6890
vn -0.7383 0.6714 -0.0634
vn 0.1432 0.7672 -0.6253
vn 0.5386 0.7395 -0.4038
vt 0.328648 1.000000
vt 0.517338 0.878602
vt 0.594372 0.982099
vt 0.328648 0.711449
vt 0.280471 0.577905
vt 0.030756 0.482936
vt 0.154019 0.385646
vt 0.328648 0.317306
vt 0.352643 0.532517
vt 0.328648 0.208252
vt 0.607497 0.381364
vt 0.571813 0.541916
vt 0.733868 0.787484
vt 0.837223 0.450112
vt 0.607497 0.433063
vt 0.843013 0.282831
vt 0.211198 0.089977
vt 0.607497 0.103319
vt 0.607497 0.191432
vt -0.000000 0.244807
vt 0.407003 0.000000
vt 0.090159 0.985717
vt 0.058147 0.809640
vt 0.273766 0.832856
vt 0.750768 0.532517
vt 0.823349 -0.000000
vt -0.000000 0.000000
vt -0.000000 0.577905
vt 0.294315 0.577905
s 0
usemtl Material.001
f 1/1/1 2/2/1 3/3/1
f 2/2/2 1/1/2 6/4/2
f 1/5/3 3/6/3 4/7/3
f 1/5/4 4/7/4 5/8/4
f 1/9/5 5/10/5 6/11/5
f 2/2/6 6/4/6 11/12/6
f 3/3/7 2/2/7 7/13/7
f 4/14/8 3/15/8 8/16/8
f 5/8/9 4/7/9 9/17/9
f 6/11/10 5/10/10 10/18/10
f 2/2/11 11/12/11 7/13/11
f 3/15/12 7/19/12 8/16/12
f 4/7/13 8/20/13 9/17/13
f 5/10/14 9/21/14 10/18/14
f 6/22/15 10/23/15 11/24/15
f 7/13/16 11/12/16 12/25/16
f 8/16/17 7/19/17 12/26/17
f 9/17/18 8/20/18 12/27/18
f 10/23/19 9/28/19 12/29/19
f 11/24/20 10/23/20 12/29/20
