# Blender 3.6.4
# www.blender.org
mtllib particle.mtl
o Cube
v -1.000000 1.000000 1.000000
v -1.000000 -1.000000 -1.000000
v 1.000000 -1.000000 1.000000
v 1.000000 1.000000 -1.000000
vn -0.5774 0.5774 -0.5774
vn 0.5774 0.5774 0.5774
vn -0.5774 -0.5774 0.5774
vn 0.5774 -0.5774 -0.5774
vt 0.439155 0.295843
vt 0.085545 0.500000
vt 0.085545 0.091686
vt 0.439155 0.445296
vt 0.643311 0.091686
vt 0.847468 0.445296
vt 0.439155 0.704157
vt 0.085545 0.908314
vt 0.439155 0.500000
vt 0.792765 0.704157
vt 0.439155 0.908314
s 0
usemtl Material.001
f 2/1/1 1/2/1 4/3/1
f 1/4/2 3/5/2 4/6/2
f 1/7/3 2/8/3 3/2/3
f 2/9/4 4/10/4 3/11/4
