# Blender 3.6.4
# www.blender.org
mtllib hammer.mtl
o Cylinder
v -0.000000 -3.313828 0.009425
v -0.000000 0.297588 -0.217195
v 0.026187 -3.313828 0.022036
v 0.159313 0.297588 -0.140474
v 0.032655 -3.313828 0.050372
v 0.198660 0.297588 0.031917
v 0.014533 -3.313828 0.073097
v 0.088412 0.297588 0.170164
v -0.014533 -3.313828 0.073097
v -0.088412 0.297588 0.170164
v -0.032655 -3.313828 0.050372
v -0.198660 0.297588 0.031917
v -0.026187 -3.313828 0.022036
v -0.159313 0.297588 -0.140474
v -0.000000 -3.047349 -0.152840
v -0.000000 -2.933192 -0.125816
v -0.000000 0.053546 -0.205249
v 0.000000 0.088185 -0.234501
v 0.000000 0.251671 -0.240540
v 0.179186 0.251671 -0.154248
v 0.176691 0.088185 -0.149411
v 0.149973 0.053545 -0.133025
v 0.116360 -2.933192 -0.069780
v 0.141363 -3.047349 -0.084763
v 0.223441 0.251671 0.039647
v 0.220330 0.088185 0.041785
v 0.187014 0.053545 0.029259
v 0.145098 -2.933192 0.056132
v 0.176277 -3.047349 0.068204
v 0.099441 0.251671 0.195138
v 0.098056 0.088185 0.195111
v 0.083229 0.053545 0.159401
v 0.064575 -2.933192 0.157105
v 0.078451 -3.047349 0.190874
v -0.099441 0.251671 0.195138
v -0.098056 0.088185 0.195111
v -0.083229 0.053545 0.159401
v -0.064575 -2.933192 0.157105
v -0.078451 -3.047349 0.190874
v -0.223441 0.251671 0.039647
v -0.220330 0.088185 0.041785
v -0.187014 0.053545 0.029259
v -0.145098 -2.933192 0.056132
v -0.176277 -3.047349 0.068204
v -0.179186 0.251671 -0.154248
v -0.176691 0.088185 -0.149411
v -0.149973 0.053545 -0.133025
v -0.116360 -2.933192 -0.069780
v -0.141363 -3.047349 -0.084763
v -0.000000 1.153922 -0.247931
v 0.167953 1.153922 -0.167049
v 0.209434 1.153922 0.014690
v 0.093207 1.153922 0.160434
v -0.093207 1.153922 0.160434
v -0.209434 1.153922 0.014690
v -0.167953 1.153922 -0.167049
v -0.000000 1.208058 -0.323381
v 0.215399 1.208058 -0.219651
v 0.268598 1.208058 0.013430
v 0.119537 1.208058 0.200346
v -0.119537 1.208058 0.200346
v -0.268598 1.208058 0.013430
v -0.215399 1.208058 -0.219651
v -0.000000 1.523032 -0.416711
v 0.269128 1.523032 -0.287106
v 0.335597 1.523032 0.004115
v 0.149355 1.523032 0.237655
v -0.149355 1.523032 0.237655
v -0.335597 1.523032 0.004115
v -0.269128 1.523032 -0.287106
vn 0.3945 0.4165 -0.8191
vn 0.8759 0.4391 -0.1999
vn 0.6917 0.4662 0.5516
vn -0.0000 0.4778 0.8785
vn -0.6917 0.4662 0.5516
vn -0.0000 0.0114 0.9999
vn -0.8759 0.4391 -0.1999
vn -0.3945 0.4165 -0.8191
vn -0.0000 -1.0000 -0.0000
vn -0.3804 -0.4810 -0.7899
vn -0.4243 0.2086 -0.8811
vn -0.4338 -0.0240 -0.9007
vn -0.3453 -0.6055 -0.7170
vn -0.4336 -0.0333 -0.9005
vn -0.8683 -0.4547 -0.1982
vn -0.9474 0.2359 -0.2162
vn -0.9748 -0.0157 -0.2225
vn -0.7402 -0.6508 -0.1689
vn -0.9747 -0.0215 -0.2225
vn -0.7094 -0.4202 0.5658
vn -0.7530 0.2692 0.6005
vn -0.7818 -0.0054 0.6235
vn -0.5591 -0.6990 0.4459
vn -0.7818 -0.0067 0.6235
vn -0.0000 -0.4043 0.9146
vn -0.0000 0.2837 0.9589
vn -0.0000 -0.0008 1.0000
vn -0.0000 -0.7178 0.6963
vn -0.0000 -0.0002 1.0000
vn 0.7094 -0.4202 0.5658
vn 0.7530 0.2692 0.6005
vn 0.7818 -0.0054 0.6235
vn 0.5591 -0.6990 0.4459
vn 0.7818 -0.0067 0.6235
vn 0.8683 -0.4547 -0.1982
vn 0.9474 0.2359 -0.2162
vn 0.9748 -0.0157 -0.2225
vn 0.7402 -0.6508 -0.1689
vn 0.9747 -0.0215 -0.2225
vn 0.3804 -0.4810 -0.7899
vn 0.4243 0.2086 -0.8811
vn 0.4338 -0.0240 -0.9007
vn 0.3453 -0.6055 -0.7170
vn 0.4336 -0.0333 -0.9005
vn -0.2703 -0.7823 -0.5613
vn -0.4337 -0.0323 -0.9005
vn 0.9748 -0.0167 -0.2225
vn -0.7818 0.0027 0.6235
vn 0.4337 -0.0323 -0.9005
vn 0.7818 0.0027 0.6235
vn -0.9748 -0.0167 -0.2225
vn -0.9534 -0.2092 -0.2176
vn -0.5987 -0.6432 0.4774
vn 0.5987 -0.6432 0.4774
vn 0.2703 -0.7823 -0.5613
vn -0.6655 -0.7308 -0.1519
vn -0.0000 -0.5934 0.8049
vn 0.6655 -0.7308 -0.1519
vn -0.0000 1.0000 -0.0000
vn -0.0000 -0.1176 0.9931
vn 0.9533 -0.2092 -0.2176
vn -0.4192 -0.2579 -0.8705
vn -0.7734 -0.1463 0.6168
vn 0.7734 -0.1463 0.6168
vn 0.4192 -0.2579 -0.8705
vn 0.9534 -0.2092 -0.2176
vt 0.099898 0.202033
vt 0.129609 0.191518
vt 0.127617 0.201755
vt 0.169137 0.191438
vt 0.172075 0.201664
vt 0.278606 0.291133
vt 0.308201 0.280205
vt 0.306353 0.290795
vt 0.350735 0.288192
vt 0.347662 0.277890
vt 0.378332 0.285284
vt 0.295926 0.089219
vt 0.337526 0.086779
vt 0.005741 0.192461
vt 0.027719 0.201645
vt -0.000000 0.202696
vt 0.030386 0.191528
vt 0.072178 0.201645
vt 0.397686 0.284727
vt 0.392606 0.274179
vt 0.404020 0.271574
vt 0.028598 0.939317
vt 0.047934 0.999847
vt 0.041436 0.999847
vt 0.032180 0.913974
vt 0.063672 0.939317
vt 0.031545 0.246129
vt 0.061051 0.913974
vt 0.071592 0.238212
vt 0.068755 0.246129
vt 0.027753 0.238212
vt 0.006729 0.940145
vt 0.037385 1.000000
vt 0.014180 0.914656
vt 0.008344 0.247009
vt 0.495909 0.083256
vt 0.458923 0.098507
vt 0.459632 0.091536
vt 0.000419 0.239247
vt 0.256741 0.694127
vt 0.246706 0.752528
vt 0.242655 0.752730
vt 0.253550 0.668357
vt 0.278606 0.693036
vt 0.255409 0.001158
vt 0.271547 0.667458
vt 0.512054 0.049731
vt 0.501663 0.088752
vt 0.379777 0.321801
vt 0.352565 0.324669
vt 0.221667 0.694249
vt 0.236158 0.752752
vt 0.224679 0.668457
vt 0.218199 0.001287
vt 0.501663 0.009755
vt 0.495909 0.016205
vt 0.308800 0.327235
vt 0.166552 0.998973
vt 0.199329 0.939318
vt 0.170604 0.998997
vt 0.199795 0.693309
vt 0.173227 0.913718
vt 0.191291 0.246146
vt 0.191228 0.913824
vt 0.458923 0.000000
vt 0.459632 0.007925
vt 0.172461 0.238214
vt 0.199795 0.201828
vt 0.199795 0.238376
vt 0.160055 0.998986
vt 0.177461 0.939188
vt 0.142387 0.939260
vt 0.144356 0.913777
vt 0.168090 0.246008
vt 0.128622 0.238303
vt 0.130879 0.246084
vt 0.085540 0.940145
vt 0.051985 1.000000
vt 0.120519 0.939479
vt 0.091956 0.247009
vt 0.079051 0.914656
vt 0.386714 0.313967
vt 0.392606 0.273920
vt 0.392606 0.311130
vt 0.099898 0.202696
vt 0.098926 0.239247
vt 0.470086 0.245049
vt 0.503790 0.210084
vt 0.480602 0.258235
vt 0.069914 0.191528
vt 0.031224 -0.000000
vt 0.072895 -0.000000
vt 0.165527 0.000000
vt 0.372197 0.275305
vt 0.363393 0.084053
vt 0.098877 0.000984
vt 0.094559 0.192461
vt 0.191509 0.000154
vt 0.193783 0.191584
vt 0.005242 0.000984
vt 0.457660 0.104129
vt 0.388292 0.150041
vt 0.386714 0.108408
vt 0.470086 0.169959
vt 0.428498 0.150041
vt 0.480602 0.161933
vt 0.396879 0.228340
vt 0.386714 0.183363
vt 0.396879 0.186668
vt 0.428498 0.270128
vt 0.429459 0.254322
vt 0.488166 0.207504
vt 0.342713 0.074691
vt 0.386714 0.236806
vt 0.395913 0.462418
vt 0.278606 0.435643
vt 0.330812 0.327235
vt 0.289361 0.077820
vt 0.345266 0.004368
vt 0.424885 0.339480
vt 0.495557 0.394010
vt 0.425049 0.392923
vt 0.457660 0.050686
vt 0.386714 0.041633
vt 0.375887 0.071195
vt 0.386714 -0.000000
vt 0.495353 0.435644
vt 0.424885 0.426245
vt 0.388292 0.000000
vt 0.458923 0.017364
vt 0.104964 0.191765
vt 0.283532 0.280505
vt 0.406839 0.277427
vt 0.404020 0.283281
vt 0.392606 0.280676
vt 0.397686 0.270128
vt 0.278606 -0.000000
vt 0.520685 0.049253
vt 0.206676 0.667683
vt 0.126356 0.913957
vt 0.386714 0.270128
vt 0.123856 0.000085
vt 0.458923 0.137451
vt 0.429459 0.160687
vt 0.395913 0.342094
vt 0.424885 0.402256
vt 0.330812 0.477277
vt 0.278606 0.368869
vt 0.278606 0.008278
vt 0.495352 0.327235
s 0
usemtl Material.003
f 19/1/1 4/2/1 20/3/1
f 20/3/2 6/4/2 25/5/2
f 25/6/3 8/7/3 30/8/3
f 8/7/4 35/9/4 30/8/4
f 10/10/5 40/11/5 35/9/5
f 10/10/6 53/12/6 54/13/6
f 12/14/7 45/15/7 40/16/7
f 14/17/8 19/18/8 45/15/8
f 3/19/9 7/20/9 11/21/9
f 49/22/10 1/23/10 13/24/10
f 48/25/11 15/26/11 49/22/11
f 47/27/12 16/28/12 48/25/12
f 47/27/13 18/29/13 17/30/13
f 45/15/14 18/29/14 46/31/14
f 44/32/15 13/24/15 11/33/15
f 43/34/16 49/22/16 44/32/16
f 42/35/17 48/25/17 43/34/17
f 42/36/18 46/37/18 47/38/18
f 40/16/19 46/31/19 41/39/19
f 39/40/20 11/41/20 9/42/20
f 38/43/21 44/44/21 39/40/21
f 37/45/22 43/46/22 38/43/22
f 37/47/23 41/48/23 42/36/23
f 35/9/24 41/49/24 36/50/24
f 34/51/25 9/42/25 7/52/25
f 33/53/26 39/40/26 34/51/26
f 32/54/27 38/43/27 33/53/27
f 31/55/28 37/47/28 32/56/28
f 30/8/29 36/50/29 31/57/29
f 5/58/30 34/59/30 7/60/30
f 29/61/31 33/53/31 34/51/31
f 28/62/32 32/63/32 33/64/32
f 26/65/33 32/56/33 27/66/33
f 26/67/34 30/68/34 31/69/34
f 3/70/35 29/71/35 5/58/35
f 24/72/36 28/62/36 29/71/36
f 23/73/37 27/74/37 28/62/37
f 21/75/38 27/74/38 22/76/38
f 21/75/39 25/5/39 26/67/39
f 1/23/40 24/77/40 3/78/40
f 15/79/41 23/73/41 24/72/41
f 16/28/42 22/80/42 23/81/42
f 18/82/43 22/83/43 17/84/43
f 18/29/44 20/85/44 21/86/44
f 50/87/45 63/88/45 57/89/45
f 2/90/46 56/91/46 50/92/46
f 4/2/47 52/93/47 6/4/47
f 12/94/48 54/13/48 55/95/48
f 2/90/49 51/96/49 4/97/49
f 6/4/50 53/98/50 8/99/50
f 14/17/51 55/100/51 56/91/51
f 63/101/52 69/102/52 70/103/52
f 55/104/53 61/105/53 62/106/53
f 52/107/54 60/108/54 53/109/54
f 50/87/55 58/110/55 51/111/55
f 56/112/56 62/106/56 63/88/56
f 53/12/57 61/113/57 54/13/57
f 51/111/58 59/114/58 52/107/58
f 64/115/59 69/116/59 67/117/59
f 60/118/60 68/119/60 61/113/60
f 58/120/61 66/121/61 59/122/61
f 57/123/62 70/103/62 64/124/62
f 62/125/63 68/119/63 69/126/63
f 59/122/64 67/127/64 60/128/64
f 57/123/65 65/129/65 58/130/65
f 19/1/1 2/131/1 4/2/1
f 20/3/2 4/2/2 6/4/2
f 25/6/3 6/132/3 8/7/3
f 8/7/4 10/10/4 35/9/4
f 10/10/5 12/94/5 40/11/5
f 10/10/6 8/7/6 53/12/6
f 12/14/7 14/17/7 45/15/7
f 14/17/8 2/90/8 19/18/8
f 13/133/9 1/134/9 3/19/9
f 3/19/9 5/135/9 7/20/9
f 7/20/9 9/136/9 11/21/9
f 11/21/9 13/133/9 3/19/9
f 49/22/10 15/26/10 1/23/10
f 48/25/11 16/28/11 15/26/11
f 47/27/12 17/30/12 16/28/12
f 47/27/13 46/31/13 18/29/13
f 45/15/14 19/18/14 18/29/14
f 44/32/15 49/22/15 13/24/15
f 43/34/16 48/25/16 49/22/16
f 42/35/17 47/27/17 48/25/17
f 42/36/18 41/48/18 46/37/18
f 40/16/19 45/15/19 46/31/19
f 39/40/20 44/44/20 11/41/20
f 38/43/21 43/46/21 44/44/21
f 37/45/22 42/137/22 43/46/22
f 37/47/23 36/138/23 41/48/23
f 35/9/24 40/11/24 41/49/24
f 34/51/25 39/40/25 9/42/25
f 33/53/26 38/43/26 39/40/26
f 32/54/27 37/45/27 38/43/27
f 31/55/28 36/138/28 37/47/28
f 30/8/29 35/9/29 36/50/29
f 5/58/30 29/71/30 34/59/30
f 29/61/31 28/139/31 33/53/31
f 28/62/32 27/74/32 32/63/32
f 26/65/33 31/55/33 32/56/33
f 26/67/34 25/5/34 30/68/34
f 3/70/35 24/72/35 29/71/35
f 24/72/36 23/73/36 28/62/36
f 23/73/37 22/76/37 27/74/37
f 21/75/38 26/67/38 27/74/38
f 21/75/39 20/3/39 25/5/39
f 1/23/40 15/26/40 24/77/40
f 15/79/41 16/140/41 23/73/41
f 16/28/42 17/30/42 22/80/42
f 18/82/43 21/141/43 22/83/43
f 18/29/44 19/18/44 20/85/44
f 50/87/45 56/112/45 63/88/45
f 2/90/46 14/17/46 56/91/46
f 4/2/47 51/142/47 52/93/47
f 12/94/48 10/10/48 54/13/48
f 2/90/49 50/92/49 51/96/49
f 6/4/50 52/93/50 53/98/50
f 14/17/51 12/14/51 55/100/51
f 63/101/52 62/143/52 69/102/52
f 55/104/53 54/144/53 61/105/53
f 52/107/54 59/114/54 60/108/54
f 50/87/55 57/89/55 58/110/55
f 56/112/56 55/104/56 62/106/56
f 53/12/57 60/118/57 61/113/57
f 51/111/58 58/110/58 59/114/58
f 66/145/59 65/146/59 64/115/59
f 64/115/59 70/147/59 69/116/59
f 69/116/59 68/148/59 67/117/59
f 67/117/59 66/145/59 64/115/59
f 60/118/60 67/149/60 68/119/60
f 58/120/66 65/150/66 66/121/66
f 57/123/62 63/101/62 70/103/62
f 62/125/63 61/113/63 68/119/63
f 59/122/64 66/121/64 67/127/64
f 57/123/65 64/124/65 65/129/65
o Cube
v 0.249868 1.678648 0.737530
v 0.165914 2.296371 0.811947
v 0.185596 1.481279 -0.958626
v 0.054426 2.269907 -0.985993
v -0.335473 1.594414 0.716828
v -0.200979 2.397588 0.472416
v -0.318846 1.485586 -1.070202
v -0.318233 2.231753 -1.007921
v 0.352018 1.366408 -0.647040
v 0.450304 1.399535 -0.083214
v 0.419637 1.448724 0.554886
v 0.153563 2.342695 0.303911
v 0.228296 2.201310 -0.071151
v 0.090333 2.368580 -0.595176
v -0.303772 1.344215 0.305478
v -0.397677 1.332757 -0.180326
v -0.323075 1.295537 -0.734408
v -0.401905 2.397364 -0.727415
v -0.236617 2.383323 -0.197566
v -0.269994 2.351807 0.164408
v 0.393633 1.881780 0.954838
v 0.369162 2.035768 0.972853
v 0.278990 1.865266 -1.060726
v 0.366678 1.675118 -1.036973
v -0.464415 1.942595 -1.106974
v -0.477609 1.645087 -1.123442
v -0.458178 2.109834 1.061628
v -0.395290 1.816624 0.860432
v -0.461077 2.018546 -0.673825
v -0.528118 1.643186 -0.699434
v -0.501788 1.976868 -0.223180
v -0.558078 1.590465 -0.239805
v -0.434059 2.011310 0.458855
v -0.515631 1.723519 0.337620
v 0.436693 2.094241 0.631172
v 0.535160 1.789481 0.523979
v 0.398846 1.984658 -0.243458
v 0.525739 1.736796 -0.069206
v 0.386457 1.955414 -0.673025
v 0.485802 1.654699 -0.654368
vn 0.7724 0.5953 -0.2213
vn 0.0839 0.2258 -0.9706
vn -0.8523 0.5102 0.1151
vn -0.1143 0.9114 0.3952
vn -0.1492 -0.6802 0.7177
vn 0.0749 0.9838 -0.1630
vn -0.0567 0.8522 -0.5201
vn 0.0560 0.9984 0.0090
vn 0.3356 0.9353 0.1124
vn 0.1008 -0.8664 -0.4891
vn 0.0939 -0.9924 0.0793
vn 0.0775 -0.9970 0.0085
vn -0.8792 0.4704 -0.0757
vn -0.9361 0.1882 0.2970
vn -0.8363 0.5475 -0.0294
vn 0.6813 0.6871 0.2523
vn 0.7252 0.6794 -0.1116
vn 0.7828 0.6222 -0.0075
vn 0.9756 -0.2167 -0.0362
vn 0.9149 0.3864 -0.1167
vn 0.9473 -0.3200 0.0134
vn 0.9461 0.3210 -0.0435
vn 0.5525 -0.7592 0.3441
vn 0.9684 0.1289 0.2135
vn -0.8535 -0.4906 0.1758
vn -0.9890 0.1424 0.0399
vn -0.8608 -0.4963 -0.1130
vn -0.9810 0.1801 -0.0720
vn -0.6917 -0.7171 -0.0856
vn -0.9917 0.0505 -0.1179
vn 0.0469 -0.5332 0.8447
vn 0.0387 -0.5597 0.8278
vn -0.8405 -0.4892 0.2328
vn -0.9630 0.1941 0.1871
vn 0.1817 -0.5096 -0.8410
vn 0.1043 -0.0758 -0.9917
vn 0.7583 -0.3656 -0.5398
vn 0.9189 0.2868 -0.2708
vn 0.7952 0.5037 -0.3375
vn 0.0238 0.3132 -0.9494
vn -0.8484 0.5160 -0.1183
vn 0.1382 0.5961 0.7909
vn 0.1033 -0.8462 0.5227
vn 0.1916 0.9778 0.0845
vn 0.1242 0.9593 -0.2536
vn 0.3045 0.9277 0.2160
vn 0.1280 0.9362 -0.3274
vn 0.1476 -0.8998 -0.4106
vn 0.0732 -0.9963 0.0458
vn 0.1148 -0.9900 0.0818
vn -0.9362 0.0985 -0.3374
vn -0.8365 0.5473 -0.0250
vn -0.8767 0.4769 0.0630
vn 0.6211 0.7817 0.0562
vn 0.7337 0.6696 -0.1156
vn 0.8055 0.5892 -0.0633
vn 0.8979 -0.4200 -0.1318
vn 0.9493 0.3106 -0.0485
vn 0.9733 -0.2204 0.0638
vn 0.9107 0.4031 -0.0899
vn 0.6282 -0.1436 0.7647
vn 0.9411 0.2113 0.2639
vn -0.8529 -0.4913 0.1765
vn -0.9674 0.2388 0.0840
vn -0.8385 -0.5396 -0.0766
vn -0.9881 0.1460 -0.0477
vn -0.8399 -0.4677 -0.2753
vn -0.9839 0.1773 -0.0235
vn -0.0230 -0.7227 0.6908
vn -0.1070 -0.1323 0.9854
vn -0.8698 -0.4108 0.2734
vn -0.9785 -0.2061 -0.0055
vn 0.1071 -0.2173 -0.9702
vn 0.0674 0.0522 -0.9964
vn 0.6579 -0.7128 -0.2429
vn 0.8733 0.3620 -0.3262
vt 0.677326 0.107130
vt 0.573159 0.013710
vt 0.544693 0.120689
vt 0.392547 0.567095
vt 0.301287 0.711521
vt 0.410948 0.772376
vt 0.110511 0.166062
vt 0.000000 0.159507
vt 0.012895 0.244971
vt 0.544693 0.000000
vt 0.383527 0.061995
vt 0.488258 0.153471
vt 0.171993 0.777781
vt 0.000000 0.901257
vt 0.206792 0.864492
vt 0.389681 0.200160
vt 0.505481 0.239309
vt 0.544693 0.483066
vt 0.415385 0.556064
vt 0.515091 0.564054
vt 0.498330 0.337678
vt 0.409363 0.446235
vt 0.363716 0.306478
vt 0.637381 0.589635
vt 0.777091 0.665350
vt 0.777399 0.567192
vt 0.588863 0.675878
vt 0.785675 0.816503
vt 0.550085 0.827034
vt 0.750200 0.947174
vt 0.105394 0.478145
vt 0.043032 0.568477
vt 0.124938 0.597647
vt 0.002441 0.344305
vt -0.000000 0.491429
vt 0.119063 0.354478
vt 0.301287 0.116079
vt 0.316574 0.024063
vt 0.627519 0.465086
vt 0.592578 0.268210
vt 0.544693 0.369011
vt 0.664972 0.225138
vt 0.821661 0.275570
vt 0.764156 0.116473
vt 0.737873 0.277111
vt 0.798099 0.450176
vt 0.716978 0.439849
vt 0.247513 0.802389
vt 0.222797 0.703027
vt 0.676346 0.555610
vt 0.633512 0.558748
vt 0.294247 0.343618
vt 0.190750 0.200843
vt 0.226261 0.360527
vt 0.301287 0.495721
vt 0.209731 0.486720
vt 0.247901 0.587641
vt 0.206893 0.603084
vt 0.003314 0.702175
vt 0.009370 0.776216
vt 0.221120 0.666442
vt 0.000000 0.603084
vt 0.224048 0.095396
vt 0.290886 0.209098
vt 0.164572 0.055711
vt 0.518053 0.609606
vt 0.463127 0.797732
vt 0.518053 0.750978
vt 0.474344 0.564054
vt 0.544693 0.661930
vt 0.754735 0.009517
vt 0.698116 0.000000
vt 0.313249 0.608919
vt 0.085826 0.000000
vt 0.544693 1.000000
vt 0.830320 0.119569
vt 0.584195 0.558748
s 0
usemtl Material.001
f 109/151/67 74/152/67 84/153/67
f 95/154/68 74/155/68 93/156/68
f 103/157/69 76/158/69 90/159/69
f 97/160/70 72/161/70 76/162/70
f 71/163/71 85/164/71 81/165/71
f 76/162/72 82/166/72 90/167/72
f 88/168/73 74/169/73 78/170/73
f 89/171/74 84/172/74 88/168/74
f 90/167/75 83/173/75 89/171/75
f 73/174/76 87/175/76 77/176/76
f 79/177/77 86/178/77 87/175/77
f 80/179/78 85/180/78 86/178/78
f 99/181/79 78/182/79 95/183/79
f 99/181/80 89/184/80 88/185/80
f 101/186/81 90/159/81 89/184/81
f 105/187/82 72/161/82 92/188/82
f 105/189/83 83/190/83 82/191/83
f 107/192/84 84/153/84 83/190/84
f 80/193/85 110/194/85 108/195/85
f 110/194/86 107/192/86 108/195/86
f 81/196/87 108/195/87 106/197/87
f 108/195/88 105/189/88 106/197/88
f 71/163/89 106/198/89 91/199/89
f 91/200/90 105/189/90 92/201/90
f 86/202/91 104/203/91 102/204/91
f 104/203/92 101/186/92 102/204/92
f 87/205/93 102/204/93 100/206/93
f 100/206/94 101/186/94 99/181/94
f 77/207/95 100/206/95 96/208/95
f 100/206/96 95/183/96 96/208/96
f 71/163/97 98/209/97 75/210/97
f 98/209/98 92/211/98 97/212/98
f 75/213/99 104/203/99 85/214/99
f 98/215/100 103/157/100 104/203/100
f 77/216/101 94/217/101 73/218/101
f 96/219/102 93/156/102 94/217/102
f 73/174/103 110/220/103 79/177/103
f 94/221/104 109/151/104 110/194/104
f 109/151/105 93/222/105 74/152/105
f 95/154/106 78/223/106 74/155/106
f 103/157/107 97/224/107 76/158/107
f 97/160/108 92/188/108 72/161/108
f 71/163/109 75/210/109 85/164/109
f 76/162/110 72/161/110 82/166/110
f 88/168/111 84/172/111 74/169/111
f 89/171/112 83/173/112 84/172/112
f 90/167/113 82/166/113 83/173/113
f 73/174/114 79/177/114 87/175/114
f 79/177/115 80/179/115 86/178/115
f 80/179/116 81/225/116 85/180/116
f 99/181/117 88/185/117 78/182/117
f 99/181/118 101/186/118 89/184/118
f 101/186/119 103/157/119 90/159/119
f 105/187/120 82/166/120 72/161/120
f 105/189/121 107/192/121 83/190/121
f 107/192/122 109/151/122 84/153/122
f 80/193/123 79/226/123 110/194/123
f 110/194/124 109/151/124 107/192/124
f 81/196/125 80/193/125 108/195/125
f 108/195/126 107/192/126 105/189/126
f 71/163/127 81/165/127 106/198/127
f 91/200/128 106/197/128 105/189/128
f 86/202/129 85/214/129 104/203/129
f 104/203/130 103/157/130 101/186/130
f 87/205/131 86/202/131 102/204/131
f 100/206/132 102/204/132 101/186/132
f 77/207/133 87/205/133 100/206/133
f 100/206/134 99/181/134 95/183/134
f 71/163/135 91/199/135 98/209/135
f 98/209/136 91/199/136 92/211/136
f 75/213/137 98/215/137 104/203/137
f 98/215/138 97/224/138 103/157/138
f 77/216/139 96/219/139 94/217/139
f 96/219/140 95/154/140 93/156/140
f 73/174/141 94/227/141 110/220/141
f 94/221/142 93/222/142 109/151/142
o Cube.001
v -0.433882 1.326218 0.181259
v -0.254546 2.429770 0.028802
v -0.433882 1.285138 -0.245231
v -0.254553 2.423799 -0.167258
v 0.445520 1.368747 0.181259
v -0.057291 2.437901 0.028773
v 0.445520 1.327667 -0.245231
v -0.057284 2.426883 -0.167229
v -0.586377 1.655923 0.169230
v -0.551382 1.943099 0.157202
v -0.400697 2.230276 0.145173
v -0.400697 2.189197 -0.281317
v -0.551382 1.902020 -0.269288
v -0.586377 1.614844 -0.257260
v 0.290208 2.189197 -0.281317
v 0.521808 1.902020 -0.269288
v 0.580723 1.614844 -0.257260
v 0.290208 2.230276 0.145173
v 0.521808 1.943099 0.157202
v 0.580723 1.655923 0.169230
v -0.311053 2.398376 0.133145
v -0.311053 2.390871 -0.293346
v -0.000784 2.427998 -0.293346
v -0.000784 2.439998 0.133145
v -0.188006 2.548292 -0.047650
v -0.188008 2.546726 -0.099060
v -0.136281 2.547535 -0.099052
v -0.136282 2.550424 -0.047657
v -0.288167 1.235174 -0.243139
v -0.288167 1.276254 0.183352
v 0.304637 1.277703 -0.243139
v 0.304637 1.318783 0.183352
vn -0.8828 0.4676 -0.0450
vn -0.0000 -0.0503 -0.9987
vn 0.6345 0.7694 -0.0741
vn -0.0000 0.0573 0.9984
vn 0.3341 -0.9382 0.0904
vn -0.0226 0.5508 0.8343
vn -0.0017 0.0357 0.9994
vn -0.0000 0.0418 0.9991
vn 0.9046 -0.4242 0.0409
vn 0.9796 0.2002 -0.0193
vn 0.7782 0.6251 -0.0602
vn 0.0017 -0.0357 -0.9994
vn -0.0000 -0.0418 -0.9991
vn -0.9074 -0.4182 0.0403
vn -0.9926 0.1205 -0.0116
vn -0.8854 0.4627 -0.0446
vn -0.5217 0.8527 -0.0260
vn -0.1164 0.9725 -0.2018
vn -0.0822 0.9962 -0.0280
vn -0.0412 0.9991 0.0022
vn -0.0411 0.9976 -0.0561
vn -0.0075 0.4882 -0.8727
vn 0.8280 0.5599 -0.0314
vn -0.8759 0.4823 -0.0147
vn 0.0712 -0.9929 0.0956
vn -0.0023 0.0484 0.9988
vn 0.0025 -0.0346 -0.9994
vn -0.3242 -0.9416 0.0907
vn -0.9139 0.4058 -0.0071
vn 0.0075 -0.0629 -0.9980
vn 0.5852 0.8106 -0.0228
vn -0.0103 0.0768 0.9970
vn -0.4775 0.8785 -0.0155
vn -0.0156 0.9999 0.0018
vn 0.0664 0.9962 -0.0560
vn -0.1297 0.9667 0.2206
vn -0.0156 0.9994 -0.0304
vn -0.0025 0.0346 0.9994
vn 0.0023 -0.0484 -0.9988
vt 0.680279 0.009356
vt 0.860173 0.109521
vt 0.678681 0.099904
vt 0.280763 0.100275
vt 0.457199 0.011707
vt 0.573100 0.121225
vt 0.001761 0.078595
vt 0.184803 0.218284
vt 0.003230 0.226358
vt 0.667095 0.728555
vt 0.590492 0.904106
vt 0.569701 0.611760
vt 0.680075 0.488042
vt 0.860962 0.547539
vt 0.679207 0.548381
vt 0.000000 0.663528
vt 0.052915 0.611270
vt 0.052915 0.633230
vt 0.201653 0.572033
vt 0.353829 1.000000
vt 0.210277 0.945417
vt 0.441607 0.522426
vt 0.318709 0.506160
vt 0.473901 0.976529
vt 0.002212 0.499501
vt 0.181573 0.571707
vt -0.000000 0.579780
vt 0.003245 0.380260
vt 0.183785 0.491428
vt 0.184818 0.372186
vt 0.184818 0.336926
vt 0.612746 0.489356
vt 0.239364 0.480665
vt 0.662405 0.249388
vt 0.678644 0.372315
vt 0.208315 0.216846
vt 0.679463 0.477583
vt 0.860136 0.364675
vt 0.860955 0.487200
vt 0.678644 0.355058
vt 0.860135 0.242437
vt 0.678644 0.232820
vt 0.053531 0.031375
vt 0.180537 0.023337
vt 0.136710 0.032486
vt 0.000000 0.014289
vt 0.054811 0.069818
vt 0.182677 0.081378
vt 0.138079 0.069042
vt 0.085933 0.010081
vt 0.107409 0.000291
vt 0.107768 0.009877
vt 0.105907 0.663473
vt 0.052915 0.612488
vt 0.105907 0.579780
vt 0.105907 0.662988
vt 0.162062 0.610719
vt 0.162062 0.632538
vt 0.860399 0.799422
vt 0.678644 0.800264
vt 0.184818 0.633152
vt 0.551624 0.506160
vt 0.299507 0.506160
vt 0.680075 0.861451
vt 0.861831 0.860609
vt 0.860955 0.000000
vt 0.326082 -0.000000
vt 0.671673 0.860182
vt 0.861831 0.487200
vt 0.000000 0.579780
vt 0.085598 0.000000
vt 0.052915 0.634434
vt 0.105907 0.579780
vt 0.184818 0.885267
s 0
usemtl Material.005
f 131/228/143 122/229/143 121/230/143
f 122/231/144 133/232/144 125/233/144
f 133/234/145 128/235/145 125/236/145
f 134/237/146 121/238/146 128/239/146
f 117/240/147 142/241/147 141/242/147
f 112/243/148 138/244/148 135/245/148
f 115/246/149 119/247/149 111/248/149
f 129/249/150 119/247/150 130/250/150
f 128/239/150 120/251/150 129/249/150
f 127/252/151 115/253/151 117/254/151
f 126/255/152 130/256/152 127/252/152
f 125/236/153 129/257/153 126/255/153
f 124/258/154 117/259/154 113/260/154
f 124/258/155 126/261/155 127/262/155
f 123/263/155 125/233/155 126/261/155
f 111/264/156 124/265/156 113/266/156
f 119/267/157 123/268/157 124/265/157
f 120/269/158 122/229/158 123/268/158
f 114/270/159 131/271/159 112/272/159
f 114/270/160 133/234/160 132/273/160
f 118/274/161 134/275/161 133/234/161
f 112/272/162 134/275/162 116/276/162
f 137/277/163 135/278/163 138/279/163
f 114/280/164 137/281/164 118/282/164
f 116/276/165 137/277/165 138/279/165
f 114/283/166 135/284/166 136/285/166
f 141/242/167 140/286/167 139/287/167
f 111/248/168 142/288/168 115/246/168
f 113/260/169 141/289/169 139/290/169
f 113/291/170 140/286/170 111/292/170
f 131/228/171 132/293/171 122/229/171
f 122/231/172 132/294/172 133/232/172
f 133/234/173 134/275/173 128/235/173
f 134/237/174 131/295/174 121/238/174
f 117/240/147 115/296/147 142/241/147
f 112/243/148 116/297/148 138/244/148
f 115/246/150 130/250/150 119/247/150
f 129/249/150 120/251/150 119/247/150
f 128/239/150 121/238/150 120/251/150
f 127/252/151 130/256/151 115/253/151
f 126/255/152 129/257/152 130/256/152
f 125/236/153 128/235/153 129/257/153
f 124/258/155 127/262/155 117/259/155
f 124/258/155 123/263/155 126/261/155
f 123/263/155 122/231/155 125/233/155
f 111/264/156 119/267/156 124/265/156
f 119/267/157 120/269/157 123/268/157
f 120/269/158 121/230/158 122/229/158
f 114/270/175 132/273/175 131/271/175
f 114/270/176 118/274/176 133/234/176
f 118/274/177 116/276/177 134/275/177
f 112/272/178 131/271/178 134/275/178
f 137/277/179 136/298/179 135/278/179
f 114/280/164 136/299/164 137/281/164
f 116/276/165 118/274/165 137/277/165
f 114/283/166 112/300/166 135/284/166
f 141/242/167 142/241/167 140/286/167
f 111/248/180 140/301/180 142/288/180
f 113/260/181 117/259/181 141/289/181
f 113/291/170 139/287/170 140/286/170
