# Blender 3.6.4
# www.blender.org
mtllib lever_anim14.mtl
o Cube
v -0.163482 -1.000000 0.606506
v -0.163482 1.000000 0.606506
v -0.163482 -1.000000 -0.606506
v -0.163482 1.000000 -0.606506
v 0.163482 -0.928159 0.534665
v 0.163482 0.928159 0.534665
v 0.163482 -0.928159 -0.534665
v 0.163482 0.928159 -0.534665
v 0.163482 1.000000 -0.606506
v 0.163482 -1.000000 -0.606506
v 0.163482 -1.000000 0.606506
v 0.163482 1.000000 0.606506
v 0.115260 0.928159 -0.534665
v 0.115260 -0.928159 -0.534665
v 0.115260 -0.928159 0.534665
v 0.115260 0.928159 0.534665
vn -0.0000 -0.0000 -1.0000
vn -0.0000 1.0000 -0.0000
vn -0.0000 -0.0000 1.0000
vn -0.0000 -1.0000 -0.0000
vn 1.0000 -0.0000 -0.0000
vt 0.330190 0.612492
vt 0.389820 0.977241
vt 0.330190 0.977241
vt 0.475833 0.807510
vt 0.467038 0.612492
vt 0.475833 0.612492
vt 0.389820 0.612492
vt 0.449449 0.977241
vt 1.109139 0.624663
vt 1.168769 0.403441
vt 1.168769 0.624663
vt 1.109139 0.845885
vt 1.168769 0.845885
vt 0.122070 0.964139
vt 0.108968 0.612492
vt 0.122070 0.625594
vt 0.317088 0.964139
vt 0.108968 0.977241
vt 0.317088 0.625594
vt 0.482848 0.612492
vt 0.677866 0.951037
vt 0.482848 0.951037
vt 0.467038 0.807510
vt 0.475833 1.002529
vt 0.467038 1.002529
vt 0.449449 0.612492
vt 0.458244 0.951037
vt 0.449449 0.951037
vt 0.467038 0.951037
vt 0.458244 0.612492
vt 0.449449 0.612492
vt 1.109139 0.403441
vt 0.677866 0.612492
s 0
usemtl Material.001
f 4/1/1 10/2/1 3/3/1
f 7/4/2 15/5/2 5/6/2
f 12/7/3 1/8/3 11/2/3
f 10/9/4 1/10/4 3/11/4
f 4/12/2 12/11/2 9/13/2
f 7/14/5 9/15/5 8/16/5
f 5/17/5 10/18/5 7/14/5
f 8/16/5 12/1/5 6/19/5
f 6/19/5 11/3/5 5/17/5
f 13/20/5 15/21/5 14/22/5
f 6/23/4 13/24/4 8/25/4
f 8/26/3 14/27/3 7/28/3
f 5/29/1 16/30/1 6/5/1
f 4/1/1 9/7/1 10/2/1
f 7/4/2 14/23/2 15/5/2
f 12/7/3 2/31/3 1/8/3
f 10/9/4 11/32/4 1/10/4
f 4/12/2 2/9/2 12/11/2
f 7/14/5 10/18/5 9/15/5
f 5/17/5 11/3/5 10/18/5
f 8/16/5 9/15/5 12/1/5
f 6/19/5 12/1/5 11/3/5
f 13/20/5 16/33/5 15/21/5
f 6/23/4 16/4/4 13/24/4
f 8/26/3 13/30/3 14/27/3
f 5/29/1 15/27/1 16/30/1
o Cylinder
v 0.015639 -0.002533 -0.094937
v 1.355538 -0.219549 -0.129618
v 0.002494 -0.083694 -0.047469
v 1.337590 -0.330357 -0.064809
v 0.002494 -0.083694 0.047469
v 1.337591 -0.330357 0.064809
v 0.015639 -0.002533 0.094937
v 1.355538 -0.219549 0.129618
v 0.028784 0.078627 0.047469
v 1.373484 -0.108740 0.064809
v 0.028784 0.078627 -0.047469
v 1.373484 -0.108740 -0.064809
v 1.067204 -0.172849 -0.094937
v 1.054059 -0.254010 -0.047469
v 1.054059 -0.254010 0.047469
v 1.067204 -0.172849 0.094937
v 1.080349 -0.091689 0.047469
v 1.080349 -0.091689 -0.047469
v 1.084359 -0.175628 -0.129618
v 1.066412 -0.286436 -0.064809
v 1.066412 -0.286436 0.064809
v 1.084359 -0.175628 0.129618
v 1.102306 -0.064819 0.064809
v 1.102306 -0.064819 -0.064809
v -0.189818 0.030744 0.296797
v -0.189818 0.030744 -0.296797
v -0.084423 -0.246709 0.296797
v -0.084423 -0.246709 -0.296797
v 0.208555 -0.294162 0.296797
v 0.208555 -0.294162 -0.296797
v 0.396140 -0.064161 0.296797
v 0.396140 -0.064161 -0.296797
v 0.290745 0.213293 0.296797
v 0.290745 0.213293 -0.296797
v -0.002234 0.260745 0.296797
v -0.002234 0.260745 -0.296797
vn 0.1126 -0.0182 -0.9935
vn -0.2439 -0.8327 -0.4971
vn -0.1063 0.0172 -0.9942
vn -0.0250 -0.8675 -0.4967
vn -0.2439 -0.8327 0.4971
vn -0.0250 -0.8675 0.4967
vn -0.1063 0.0172 0.9942
vn 0.1126 -0.0182 0.9935
vn 0.0314 0.8671 0.4971
vn 0.2501 0.8311 0.4967
vn 0.0314 0.8671 -0.4971
vn 0.2501 0.8311 -0.4967
vn -0.0626 0.8696 -0.4898
vn -0.0000 -0.0000 -1.0000
vn 0.1385 0.8549 -0.5000
vn -0.0626 0.8696 0.4898
vn 0.1385 0.8549 0.5000
vn -0.1983 0.0321 0.9796
vn -0.0000 -0.0000 1.0000
vn -0.3339 -0.8053 0.4898
vn -0.1385 -0.8549 0.5000
vn -0.3339 -0.8053 -0.4898
vn -0.1385 -0.8549 -0.5000
vn -0.1983 0.0321 -0.9796
vn -0.1100 -0.6792 0.7257
vn -0.0177 -0.7203 -0.6934
vn -0.0177 -0.7203 0.6934
vn 0.1532 -0.0248 0.9879
vn 0.2105 0.6891 -0.6934
vn 0.2105 0.6891 0.6934
vn 0.1100 0.6792 0.7257
vn -0.1100 -0.6792 -0.7257
vn 0.1532 -0.0248 -0.9879
vn 0.1100 0.6792 -0.7257
vt 0.248669 0.749569
vt 0.294034 0.657484
vt 0.294034 0.749569
vt 0.618410 0.801053
vt 0.663775 0.657484
vt 0.663775 0.801053
vt 0.339399 0.657484
vt 0.294034 0.749569
vt 0.294034 0.657484
vt 0.339399 0.749569
vt 0.294034 0.891002
vt 0.791757 0.824085
vt 0.667422 0.608731
vt 0.916091 0.608731
vt 0.862652 0.319484
vt 0.908017 0.175915
vt 0.908017 0.319484
vt 0.248669 0.891002
vt 0.442991 0.833399
vt 0.339399 0.833399
vt 0.513254 0.657484
vt 0.618410 0.833399
vt 0.513254 0.833399
vt 0.734869 0.824085
vt 0.838460 1.000000
vt 0.734869 1.000000
vt 0.667422 0.824085
vt 0.667422 1.000000
vt 0.862652 0.000000
vt 0.967808 0.175915
vt 0.862652 0.175915
vt 0.442991 0.657484
vt 0.510437 0.833399
vt 0.248669 0.872838
vt 0.124334 0.906209
vt 0.215402 0.853631
vt 0.248669 0.729269
vt 0.215402 0.748475
vt 0.124334 0.695898
vt 0.000000 0.729269
vt 0.033267 0.748475
vt 0.000000 0.872838
vt 0.033267 0.853631
vt 0.124334 0.944622
vt 0.569398 0.657484
vt 0.618410 0.000000
vt 0.618410 0.657484
vt 0.284699 0.000000
vt 0.569398 0.000000
vt 0.000000 0.657484
vt 0.000000 0.000000
vt 0.765037 0.272947
vt 0.667422 0.532473
vt 0.716230 0.000000
vt 0.618410 0.000000
vt 0.667422 0.657484
vt 0.618410 0.657484
vt 0.813845 0.536947
vt 0.765037 0.264000
vt 0.862652 0.004474
vt 0.248669 0.657484
vt 0.339399 0.891002
vt 0.916091 0.752300
vt 0.667422 0.752300
vt 0.791757 0.536947
vt 0.862652 0.175915
vt 0.838460 0.824085
vt 0.967808 0.000000
vt 0.510437 0.657484
vt 0.124334 0.657484
vt 0.569398 -0.000000
vt 0.284699 0.657484
vt 0.765037 0.004474
vt 0.716230 0.536947
vt 0.667422 0.264000
vt 0.667422 -0.000000
vt 0.862652 0.272947
vt 0.765037 0.532473
vt 0.813845 0.000000
s 1
usemtl Material.002
f 34/40/18 17/52/19 27/53/20
f 33/54/21 27/55/20 25/56/22
f 32/57/23 25/58/22 23/59/24
f 31/60/25 23/59/24 21/61/26
f 30/62/27 21/63/26 19/64/28
f 29/65/29 19/66/28 17/52/19
f 40/67/16 29/68/29 34/69/18
f 39/70/14 34/69/18 33/71/21
f 32/72/23 39/70/14 33/71/21
f 37/73/10 32/72/23 31/74/25
f 36/75/7 31/74/25 30/76/27
f 35/77/8 30/76/27 29/68/29
f 43/78/30 46/79/31 45/80/32
f 46/78/31 47/81/33 45/82/32
f 47/81/33 50/83/34 49/84/35
f 42/85/19 50/86/34 46/87/31
f 50/88/34 51/89/36 49/90/35
f 43/91/30 47/92/33 51/93/36
f 34/40/18 29/65/29 17/52/19
f 33/54/21 34/80/18 27/55/20
f 32/57/23 33/100/21 25/58/22
f 31/60/25 32/57/23 23/59/24
f 30/62/27 31/101/25 21/63/26
f 29/65/29 30/102/27 19/66/28
f 40/67/16 35/77/8 29/68/29
f 39/70/14 40/67/16 34/69/18
f 32/72/23 38/103/12 39/70/14
f 37/73/10 38/103/12 32/72/23
f 36/75/7 37/73/10 31/74/25
f 35/77/8 36/75/7 30/76/27
f 43/78/30 44/104/37 46/79/31
f 46/78/31 48/105/38 47/81/33
f 47/81/33 48/105/38 50/83/34
f 46/87/31 44/106/37 42/85/19
f 42/85/19 52/107/39 50/86/34
f 50/86/34 48/108/38 46/87/31
f 50/88/34 52/109/39 51/89/36
f 51/93/36 41/110/24 43/91/30
f 43/91/30 45/111/32 47/92/33
f 47/92/33 49/112/35 51/93/36
usemtl Material.001
f 18/34/6 36/35/7 35/36/8
f 20/37/9 37/38/10 36/39/7
f 22/40/11 38/41/12 37/42/10
f 24/43/13 39/44/14 38/41/12
f 18/45/6 26/46/15 22/47/11
f 26/48/15 40/49/16 39/50/14
f 28/51/17 35/36/8 40/44/16
f 18/34/6 20/94/9 36/35/7
f 20/37/9 22/90/11 37/38/10
f 22/40/11 24/43/13 38/41/12
f 24/43/13 26/95/15 39/44/14
f 22/47/11 20/96/9 18/45/6
f 18/45/6 28/97/17 26/46/15
f 26/46/15 24/98/13 22/47/11
f 26/48/15 28/99/17 40/49/16
f 28/51/17 18/34/6 35/36/8
